<?xml version="1.0" encoding="UTF-8" standalone="no"?>
<svg
   xmlns:dc="http://purl.org/dc/elements/1.1/"
   xmlns:cc="http://creativecommons.org/ns#"
   xmlns:rdf="http://www.w3.org/1999/02/22-rdf-syntax-ns#"
   xmlns:svg="http://www.w3.org/2000/svg"
   xmlns="http://www.w3.org/2000/svg"
   xmlns:sodipodi="http://sodipodi.sourceforge.net/DTD/sodipodi-0.dtd"
   xmlns:inkscape="http://www.inkscape.org/namespaces/inkscape"
   width="6.3338952mm"
   height="6.2898111mm"
   viewBox="0 0 6.3338952 6.2898111"
   version="1.1"
   id="svg8"
   inkscape:version="0.92.3 (2405546, 2018-03-11)"
   sodipodi:docname="codewars.svg">
  <g
     inkscape:label="Layer 1"
     inkscape:groupmode="layer"
     id="layer1"
     transform="translate(558.79214,9.281806)">
    <path
       id="path817"
       d="m -558.60691,-6.0869654 -0.0212,-0.010583 c -0.0476,-0.026458 -0.0847,-0.066146 -0.11113,-0.1164166 -0.037,-0.068792 -0.0529,-0.1322917 -0.0529,-0.1984375 l 0.005,-0.034396 c 0,-0.052917 0.0132,-0.1005416 0.037,-0.1455208 l 0.0212,-0.039687 c 0.0106,-0.021167 0.0264,-0.039688 0.0397,-0.058208 0.0159,-0.018521 0.0185,-0.042333 0.0132,-0.0635 l -0.0132,-0.042334 c -0.0159,-0.052917 -0.0265,-0.1058333 -0.0265,-0.15875 l -0.008,-0.03175 c 0,-0.058208 0.0159,-0.1164166 0.0529,-0.15875 l 0.0265,-0.034396 c 0.0185,-0.026458 0.0476,-0.042333 0.0794,-0.052917 0.0265,-0.00794 0.045,-0.034396 0.0476,-0.066146 l 0.005,-0.089958 c 0,-0.071438 0.0344,-0.1375834 0.0873,-0.1852084 l 0.0635,-0.047625 c 0.0132,-0.013229 0.0265,-0.026458 0.037,-0.047625 0.0132,-0.015875 0.0159,-0.037042 0.0132,-0.052917 -0.005,-0.026458 0,-0.034396 0.0132,-0.037042 0.0423,0.015875 0.0688,0.010583 0.0873,-0.010583 l 0.0344,-0.044979 0.0952,-0.1058333 c 0.0264,-0.026458 0.037,-0.074083 0.0212,-0.111125 l -0.0317,-0.068792 c -0.005,-0.015875 0,-0.034396 0.0132,-0.039688 0.0344,0 0.0582,0.013229 0.0688,0.034396 l 0.0106,0.018521 c 0.0159,0.03175 0.0529,0.047625 0.0794,0.034396 0.0582,-0.021167 0.10583,-0.026458 0.15081,-0.026458 h 0.0847 c 0.0582,0 0.10583,-0.039688 0.11642,-0.1005417 0.0106,-0.074083 0.037,-0.1322917 0.0741,-0.1719792 0.0397,-0.044979 0.0847,-0.079375 0.13758,-0.1058333 0.0688,-0.037042 0.11113,-0.089958 0.12436,-0.15875 0.0185,-0.084667 0.0635,-0.1455208 0.12435,-0.1852083 l 0.20108,-0.1137703 0.0582,-0.034396 c 0.0344,-0.021167 0.0661,-0.047625 0.0926,-0.079375 l 0.0529,-0.0635 c 0.0265,-0.026458 0.0529,-0.044979 0.0847,-0.052917 0.0265,-0.00794 0.0635,-0.013229 0.0953,-0.010583 l 0.10583,0.00794 c 0.0529,0 0.0952,0.013229 0.13759,0.03175 l 0.0265,0.013229 c 0.0265,0.010583 0.0529,0.00529 0.0661,-0.013229 l 0.0238,-0.013229 0.11378,-0.1190625 c 0.0264,-0.026458 0.0582,-0.037041 0.0926,-0.03175 0.0344,0.00529 0.0688,0.018521 0.10054,0.034396 0.0476,0.026458 0.0873,0.037042 0.13229,0.037042 h 0.0265 c 0.0582,0 0.11642,0.00794 0.17463,0.021167 l 0.0397,0.010583 c 0.0397,0.010583 0.0794,-0.00529 0.10584,-0.037042 0.008,-0.013229 0.0265,-0.015875 0.037,-0.00529 0.008,0.00529 0.0106,0.010583 0.0132,0.018521 0.005,0.052917 0.037,0.092604 0.0794,0.1058333 l 0.0423,0.013229 c 0.045,0.013229 0.0847,0.042333 0.11112,0.079375 0.0265,0.039687 0.0582,0.079375 0.0953,0.1058333 l 0.0265,0.026458 c 0.0265,0.026458 0.0635,0.037042 0.10054,0.034396 h 0.1561 c 0.0635,0 0.12436,0.010583 0.18521,0.037042 0.0582,0.026458 0.11907,0.03175 0.17463,0.010583 0.0582,-0.018521 0.11906,-0.026458 0.17991,-0.018521 l 0.11378,0.018521 c 0.0529,0.00529 0.10583,0.03175 0.13758,0.071438 l 0.0132,0.013229 c 0.0265,0.026458 0.0529,0.060854 0.0794,0.097896 0.0159,0.034396 0.0529,0.052917 0.09,0.052917 h 0.16404 c 0.0397,0 0.0794,0.00794 0.11113,0.026458 0.0344,0.026458 0.0635,0.052917 0.09,0.079375 l 0.0264,0.034396 c 0.0317,0.037042 0.0476,0.087313 0.045,0.1402291 0,0.042333 0.0317,0.079375 0.0741,0.079375 l 0.0529,0.00529 c 0.037,0 0.0688,0.026458 0.0873,0.060854 l 0.0264,0.052917 0.0688,0.1534584 c 0.0106,0.026458 0.0132,0.052917 0.0106,0.074083 0,0.026458 0.008,0.047625 0.0265,0.058208 l 0.0264,0.018521 c 0.0344,0.026458 0.0529,0.066146 0.0476,0.111125 l -0.0185,0.1243562 -0.005,0.052917 c -0.005,0.026458 0.008,0.060854 0.0317,0.079375 0.0397,0.026458 0.0582,0.060854 0.0608,0.1005417 v 0.052917 c 0,0.026458 -0.005,0.058208 -0.0264,0.079375 -0.0159,0.021167 -0.0265,0.047625 -0.0265,0.079375 l 0.008,0.060854 c 0,0.042333 0.0265,0.079375 0.0529,0.1058333 0.037,0.026458 0.0582,0.068792 0.0635,0.111125 0.0106,0.066146 0.0132,0.1190625 0.0132,0.1719792 v 0.060854 c 0,0.021167 0,0.042333 0.008,0.0635 0.005,0.018521 0.0185,0.037042 0.0344,0.047625 l 0.0529,0.039687 c 0.0529,0.034396 0.09,0.079376 0.11112,0.1402298 0.0265,0.058208 0.0344,0.1190625 0.0344,0.1799167 v 0.021167 c 0,0.047625 -0.005,0.097896 -0.0212,0.142875 -0.0132,0.047625 -0.0106,0.092604 0.008,0.1322916 0.0212,0.037042 0.0344,0.079375 0.0397,0.1243542 0.0106,0.052917 0.005,0.1058333 -0.0132,0.1481667 l -0.005,0.018521 c -0.0132,0.03175 -0.0344,0.060854 -0.0608,0.084667 -0.0265,0.026458 -0.0529,0.042333 -0.0688,0.060854 -0.0159,0.015875 -0.0265,0.042333 -0.0185,0.066146 l 0.008,0.037042 c 0.0132,0.052917 0.0132,0.1058334 0,0.1534584 v 0.021167 c -0.0106,0.039686 -0.0265,0.074082 -0.0423,0.1058318 -0.0185,0.034396 -0.045,0.060854 -0.0794,0.079375 l -0.0397,0.026458 c -0.0185,0.010583 -0.0318,0.034396 -0.0318,0.058208 0,0.026458 -0.0106,0.052917 -0.0265,0.068792 l -0.0397,0.052917 c -0.0265,0.034396 -0.0609,0.0635 -0.0979,0.079375 -0.037,0.026458 -0.0688,0.052917 -0.0926,0.079375 -0.0265,0.03175 -0.0476,0.068792 -0.0582,0.1058333 -0.0106,0.047625 -0.0476,0.074083 -0.0873,0.074083 h -0.14288 c -0.037,0 -0.0714,0.026458 -0.0873,0.058208 -0.0185,0.042333 -0.037,0.071438 -0.0608,0.097896 -0.0265,0.026458 -0.0423,0.058208 -0.0529,0.09525 -0.005,0.03175 -0.0317,0.052917 -0.0582,0.042333 -0.0344,-0.015875 -0.0688,0 -0.0847,0.026458 -0.0318,0.052917 -0.0635,0.092604 -0.0979,0.127 l -0.0185,0.015875 c -0.0344,0.026458 -0.0794,0.047625 -0.11907,0.047625 -0.0476,0 -0.0714,0.021167 -0.0794,0.052917 -0.008,0.026458 -0.0132,0.060854 -0.0159,0.089958 -0.005,0.03175 -0.0159,0.060854 -0.0265,0.087313 l -0.0132,0.015875 c -0.0265,0.039687 -0.0476,0.079375 -0.0741,0.1137708 l -0.0106,0.015875 c -0.0344,0.044979 -0.0794,0.079375 -0.13229,0.092604 -0.0635,0.021167 -0.11906,0.026458 -0.17463,0.026458 h -0.037 c -0.0265,0 -0.0529,0.015875 -0.0714,0.042333 l -0.0159,0.026458 -0.0159,0.03175 -0.0344,0.058208 c -0.0265,0.047627 -0.0661,0.079377 -0.11906,0.095252 -0.0529,0.013229 -0.11378,0.018521 -0.16934,0.015875 l -0.0423,-0.00529 c -0.037,0 -0.0714,-0.010583 -0.10583,-0.026458 -0.0265,-0.010583 -0.0635,0 -0.0794,0.026458 -0.0265,0.037042 -0.0582,0.058208 -0.0926,0.068792 l -0.0794,0.026458 c -0.0529,0.013229 -0.11112,0.013229 -0.16669,0 l -0.0423,-0.013231 c -0.0265,0 -0.0529,-0.013229 -0.0741,-0.026458 -0.0265,-0.01323 -0.0529,-0.018521 -0.0794,-0.015875 l -0.0344,0.00529 c -0.0529,0.00529 -0.10055,0 -0.14817,-0.013229 l -0.0714,-0.015874 c -0.0317,-0.010583 -0.0608,-0.03175 -0.0794,-0.060854 -0.0132,-0.026458 -0.0423,-0.047625 -0.0794,-0.052917 h -0.0847 c -0.0529,-0.00794 -0.10055,-0.026458 -0.1323,-0.066146 l -0.10583,-0.1005417 -0.037,-0.03175 -0.0582,-0.042333 -0.0344,-0.026458 c -0.0397,-0.026458 -0.0873,-0.047625 -0.13758,-0.052917 l -0.15875,-0.026458 c -0.0159,0 -0.0265,-0.00529 -0.0423,-0.00794 l -0.0609,-0.013227 c -0.0264,-0.00529 -0.0529,-0.026458 -0.0714,-0.052917 -0.0159,-0.026458 -0.045,-0.037042 -0.0714,-0.026458 -0.0529,0.021167 -0.0952,0.026458 -0.13758,0.034396 h -0.0371 c -0.0688,0.00529 -0.13229,-0.00529 -0.19579,-0.034396 -0.0635,-0.026458 -0.10583,-0.066146 -0.14552,-0.1164167 -0.0317,-0.044979 -0.0794,-0.079375 -0.13758,-0.089958 l -0.0741,-0.015875 c -0.0529,-0.010583 -0.10583,-0.03175 -0.15345,-0.0635 -0.0529,-0.037042 -0.0794,-0.071438 -0.10055,-0.1137709 -0.0212,-0.039687 -0.0344,-0.084667 -0.037,-0.1322916 v -0.021167 c -0.005,-0.052917 -0.0423,-0.1005417 -0.0926,-0.1137708 -0.0609,-0.018521 -0.10583,-0.044979 -0.14552,-0.079375 -0.037,-0.034396 -0.0582,-0.084667 -0.0582,-0.1375834 l 0.005,-0.1164166 c 0,-0.044979 -0.0132,-0.084667 -0.045,-0.1137709 -0.0317,-0.03175 -0.0529,-0.071438 -0.0529,-0.1137708 l -0.008,-0.09525 c -0.005,-0.068792 -0.0185,-0.1375833 -0.0344,-0.206375 -0.0159,-0.060854 0.008,-0.1217083 0.0582,-0.1508125 l 0.0185,-0.013229 c 0.0265,-0.018521 0.037,-0.052917 0.0212,-0.084667 l -0.0212,-0.026458 c -0.0265,-0.026458 -0.0529,-0.044979 -0.0794,-0.052917 -0.0212,-0.00529 -0.0265,-0.026458 -0.0265,-0.039688 l 0.0265,-0.03175 c 0.0159,-0.018521 0.0132,-0.047625 0,-0.0635 -0.0212,-0.021167 -0.0317,-0.047625 -0.0344,-0.074083 l -0.005,-0.1852083 c 0,-0.037042 0.005,-0.074083 0.0159,-0.111125 0.0106,-0.03175 0,-0.068792 -0.0317,-0.084667 z m 2.61938,-0.34925 c 0.0185,-0.018521 0.0159,-0.052917 0,-0.066146 -0.0265,-0.021167 -0.045,-0.044979 -0.0609,-0.071437 l -0.0264,-0.042333 c -0.0185,-0.034396 -0.0423,-0.0635 -0.0688,-0.089958 l -0.005,-0.00529 c -0.0265,-0.021167 -0.045,-0.047625 -0.0609,-0.079375 -0.0132,-0.026458 -0.0132,-0.052917 0,-0.079375 l 0.0159,-0.026458 c 0.0159,-0.026458 0.0265,-0.0635 0.0265,-0.09525 v -0.010583 c 0,-0.026458 -0.0106,-0.052917 -0.0265,-0.079375 -0.0106,-0.021167 -0.0212,-0.047626 -0.0265,-0.074084 v -0.015875 c -0.008,-0.03175 0,-0.066146 0.0212,-0.092604 0.0212,-0.034396 0.037,-0.066146 0.045,-0.1058333 v -0.00529 c 0.0106,-0.026458 0.005,-0.060854 -0.0106,-0.087312 -0.0159,-0.026458 -0.0212,-0.052917 -0.0106,-0.084667 l 0.0185,-0.052919 c 0.0159,-0.047625 0.0397,-0.089958 0.0714,-0.127 l 0.0371,-0.039687 0.0264,-0.03175 0.0159,-0.015875 c 0.0159,-0.015875 0.0185,-0.042333 0.005,-0.0635 -0.0132,-0.026459 -0.0212,-0.052917 -0.0159,-0.079376 l 0.005,-0.037042 c 0.008,-0.052916 0.0265,-0.105833 0.0609,-0.1481663 l 0.0106,-0.010583 c 0.0397,-0.052917 0.09,-0.087313 0.14817,-0.1058337 l 0.0714,-0.026458 c 0.0317,-0.010583 0.0529,-0.044979 0.0529,-0.079375 0,-0.042333 0.0132,-0.079375 0.037,-0.1137708 l 0.0132,-0.013229 c 0.0265,-0.044979 0.0582,-0.089958 0.0794,-0.1375834 l 0.0185,-0.034396 c 0.005,-0.00794 0.008,-0.018521 0.008,-0.026458 0,-0.044979 -0.0265,-0.084667 -0.0688,-0.087312 l -0.11642,-0.00794 c -0.0661,-0.00529 -0.13229,0 -0.19579,0 l -0.2249,0.026458 c -0.0344,0 -0.0609,0.026458 -0.0635,0.0635 0,0.037042 -0.0264,0.068792 -0.0582,0.079375 l -0.0952,0.026458 -0.0265,0.00794 -0.0794,0.026458 c -0.0582,0.01852 -0.10583,0.060854 -0.13229,0.1190621 l -0.0212,0.034396 c -0.0265,0.058208 -0.0714,0.1058333 -0.127,0.1402292 -0.0529,0.034396 -0.0794,0.089958 -0.0847,0.1534583 v 0.026458 c -0.005,0.052917 -0.0212,0.1058334 -0.0529,0.142875 l -0.0132,0.021167 c -0.0212,0.026458 -0.0265,0.060854 -0.0132,0.089958 0.0132,0.03175 0.0212,0.066146 0.0185,0.1005417 v 0.1402292 c 0,0.037042 -0.0265,0.068792 -0.0529,0.079375 -0.0371,0.013229 -0.0609,0.042333 -0.0714,0.079375 l -0.0132,0.052917 c -0.0106,0.052917 0.008,0.1058334 0.0529,0.1375834 0.0423,0.03175 0.0688,0.079375 0.0794,0.1375833 v 0.047625 c 0.008,0.052917 0.037,0.1058333 0.0847,0.1322917 0.0476,0.03175 0.0847,0.079375 0.10583,0.1322916 l 0.0132,0.042333 c 0.0212,0.058208 0.0688,0.092604 0.12171,0.097896 h 0.0159 c 0.0476,0 0.09,0.026458 0.11642,0.068792 0.0265,0.042333 0.0688,0.071438 0.11642,0.079375 l 0.0741,0.021167 c 0.045,0.013229 0.0873,0.037042 0.12171,0.071438 l 0.005,0.00529 c 0.0265,0.021167 0.0688,0.018521 0.0926,-0.010583 l 0.0185,-0.021167 z m 0.30162,-0.2434167 c 0.0265,0.015875 0.0529,0.00794 0.0635,-0.015875 l 0.008,-0.013229 c 0.0185,-0.037042 0.0423,-0.074083 0.0688,-0.1058333 l 0.0529,-0.079375 c 0.008,0 0.0106,-0.00529 0.0132,-0.010583 l 0.0635,-0.084667 c 0.0265,-0.026458 0.0582,-0.044979 0.0952,-0.044979 0.0344,0 0.0635,-0.018521 0.0794,-0.052917 0.0106,-0.037042 0.0265,-0.071438 0.0582,-0.1005417 l 0.0132,-0.015875 c 0.0265,-0.026458 0.0529,-0.039687 0.0794,-0.052917 0.0344,-0.00529 0.0661,-0.010583 0.0979,-0.010583 h 0.0794 c 0.0317,0 0.0582,-0.013229 0.0741,-0.039687 0.0159,-0.026458 0.0397,-0.044979 0.0661,-0.058208 l 0.0265,-0.010583 c 0.0423,-0.018521 0.09,-0.03175 0.13758,-0.037042 l 0.0529,-0.00529 c 0.0318,0 0.0661,0 0.0979,0.018521 0.0265,0.018521 0.0609,0.015875 0.0873,-0.00529 l 0.0185,-0.010583 c 0.0397,-0.026463 0.0847,-0.04763 0.13229,-0.052921 h 0.005 c 0.0529,-0.010583 0.10054,-0.010583 0.15345,-0.00794 h 0.0265 c 0.0529,0.00794 0.0979,0.026461 0.1323,0.066148 l 0.008,0.010583 c 0.0265,0.026458 0.0688,0.047625 0.10583,0.047625 h 0.045 c 0.0132,0 0.0265,-0.00529 0.0344,-0.018521 0.008,-0.00794 0.0212,-0.015875 0.0344,-0.015875 h 0.0265 c 0.037,0 0.0714,0.010583 0.10583,0.021167 l 0.045,0.018521 c 0.0423,0.013229 0.0873,0.026458 0.13229,0.03175 h 0.0317 c 0.0212,0 0.0344,-0.013229 0.0344,-0.03175 0,-0.026458 -0.005,-0.052917 -0.0185,-0.074083 l -0.0185,-0.042334 c -0.0212,-0.034396 -0.037,-0.071438 -0.0529,-0.1058333 l -0.005,-0.013229 c -0.0132,-0.026458 -0.0132,-0.052917 0,-0.079375 v -0.013229 c 0.005,-0.021167 -0.005,-0.044979 -0.0265,-0.052917 h -0.0212 c -0.0423,-0.013229 -0.0794,-0.037042 -0.10583,-0.071438 l -0.0265,-0.026458 c -0.0265,-0.026458 -0.0423,-0.066146 -0.0529,-0.1058334 -0.0132,-0.034396 -0.0423,-0.060854 -0.0794,-0.060854 h -0.11113 c -0.0397,-0.00529 -0.0741,-0.026458 -0.0979,-0.058208 l -0.0106,-0.013229 c -0.0185,-0.026458 -0.0344,-0.058208 -0.045,-0.089958 -0.0132,-0.026458 -0.0423,-0.042333 -0.0688,-0.034396 l -0.0317,0.010583 c -0.0529,0.018521 -0.10583,0.026458 -0.15875,0.021167 l -0.0423,-0.00529 c -0.045,0 -0.0873,-0.018521 -0.12171,-0.044979 l -0.0265,-0.018521 c -0.0212,-0.015875 -0.0423,-0.026458 -0.0661,-0.037042 -0.0265,-0.010583 -0.0476,-0.00529 -0.0635,0.013229 l -0.0132,0.015875 c -0.0265,0.026458 -0.0635,0.047625 -0.10054,0.052917 l -0.14288,0.00794 c -0.0265,0 -0.0529,0.013229 -0.0714,0.03175 -0.0212,0.018521 -0.045,0.03175 -0.0714,0.037042 h -0.005 c -0.0265,0 -0.0529,0.018521 -0.0794,0.037042 v 0.00529 c -0.0265,0.026458 -0.0608,0.039688 -0.0952,0.039688 l -0.0106,0.00529 c -0.0317,0 -0.0635,0 -0.0953,0.00794 h -0.0317 c -0.045,0.00794 -0.0794,0.044979 -0.09,0.092604 l -0.0106,0.060854 c -0.008,0.042333 -0.0264,0.079375 -0.0529,0.1137708 -0.0265,0.03175 -0.0582,0.052917 -0.0979,0.052917 h -0.0397 -0.005 c -0.0264,0.00529 -0.0529,0.034396 -0.0476,0.066146 0.005,0.044979 0,0.084667 -0.008,0.1243542 l -0.0106,0.044979 c -0.0106,0.039688 -0.037,0.071438 -0.0714,0.084667 l -0.0159,0.00794 h -0.005 c -0.0159,0.010583 -0.0265,0.034396 -0.0132,0.052917 0.0159,0.026458 0.0212,0.052917 0.0185,0.079375 l -0.008,0.084667 c 0,0.03175 -0.0132,0.060854 -0.0265,0.087313 -0.0159,0.026458 -0.0159,0.052917 -0.005,0.079375 l 0.0265,0.058208 c 0.0132,0.026458 0.0159,0.052917 0.008,0.084667 -0.008,0.026458 -0.0132,0.052917 -0.0106,0.079375 0,0.026458 0.0159,0.052917 0.037,0.0635 l 0.005,0.00529 z m 2.09021,1.9129375 c 0.0265,0.026458 0.0661,0.037042 0.0979,0.015875 l 0.0529,-0.034396 c 0.0265,-0.018521 0.0476,-0.044979 0.0582,-0.079375 v -0.00529 l 0.0265,-0.079375 0.0159,-0.026458 0.0106,-0.026458 0.0106,-0.018521 c 0.0106,-0.021167 0.0265,-0.037042 0.0529,-0.044979 l 0.0106,-0.00529 c 0.0212,-0.00529 0.0344,-0.026458 0.0344,-0.047625 0,-0.026458 0.0132,-0.047625 0.0265,-0.066146 l 0.0212,-0.018523 0.0529,-0.068792 v -0.00529 c 0.0159,-0.021167 0.0265,-0.044979 0.0317,-0.071438 0.005,-0.026458 0,-0.052917 -0.0106,-0.079375 l -0.005,-0.010585 c -0.0106,-0.026458 -0.0159,-0.044979 -0.0185,-0.068792 l -0.008,-0.074083 -0.008,-0.079375 c 0,-0.026458 0.0106,-0.052917 0.0265,-0.079375 0.0185,-0.021167 0.0317,-0.047625 0.0423,-0.074083 v -0.010583 l 0.005,-0.00529 c 0.005,-0.026458 -0.008,-0.052917 -0.0317,-0.052917 -0.0265,-0.013232 -0.0529,-0.034398 -0.0609,-0.066148 l -0.008,-0.015875 c -0.0132,-0.047625 -0.0212,-0.09525 -0.0212,-0.142875 l 0.005,-0.1322917 v -0.00794 c 0,-0.044979 -0.037,-0.079375 -0.0794,-0.079375 h -0.005 c -0.0529,0 -0.0952,-0.015875 -0.13229,-0.052917 l -0.0212,-0.026455 -0.0529,-0.060854 -0.0688,-0.079375 c -0.0265,-0.037042 -0.0529,-0.068792 -0.0873,-0.1005417 -0.0265,-0.026458 -0.0661,-0.052917 -0.10583,-0.058208 l -0.0529,-0.00794 c -0.0265,-0.00529 -0.0609,-0.018521 -0.09,-0.037042 -0.0212,-0.015875 -0.0529,-0.010583 -0.0741,0.010583 l -0.0344,0.037042 -0.0159,0.010583 c -0.0185,0.00529 -0.037,-0.00529 -0.045,-0.026458 -0.0106,-0.03175 -0.0106,-0.068791 0.005,-0.1005414 v -0.015875 c 0,-0.018521 -0.0159,-0.03175 -0.0317,-0.026458 h -0.0423 c -0.0476,0 -0.0953,-0.00529 -0.14023,-0.026458 l -0.0265,-0.010583 c -0.0265,-0.013229 -0.0582,-0.021167 -0.0873,-0.021167 -0.0265,0 -0.0529,0.00529 -0.0794,0.021167 l -0.0106,0.00794 c -0.0317,0.021167 -0.0688,0.03175 -0.10583,0.034396 h -0.0873 c -0.0397,0 -0.0794,0.013229 -0.10583,0.034396 -0.0344,0.021167 -0.0714,0.034396 -0.11112,0.042333 l -0.0714,0.010583 c -0.0317,0.00794 -0.0661,0.021167 -0.0952,0.044979 -0.0265,0.026458 -0.0635,0.042333 -0.0979,0.052917 l -0.0132,0.00529 c -0.0423,0.013229 -0.0794,0.039687 -0.10583,0.079375 l -0.0317,0.03175 c -0.0185,0.026458 -0.0185,0.058208 0,0.084667 0.0159,0.026458 0.0476,0.034396 0.0794,0.026458 l 0.0397,-0.015875 c 0.0212,-0.00794 0.045,0 0.0635,0.010583 0.0159,0.013229 0.0397,0.021167 0.0635,0.018521 l 0.0661,-0.00794 c 0.037,0 0.0741,0 0.11112,0.010583 0.0397,0.013229 0.0741,0.026458 0.10584,0.052917 0.0317,0.026458 0.0661,0.037042 0.10583,0.042333 0.0397,0.00529 0.0794,0.013229 0.11642,0.026458 l 0.0264,0.00529 c 0.0265,0.00794 0.0476,0.026458 0.0635,0.052917 0.0132,0.021167 0.0265,0.052917 0.0265,0.079375 v 0.00794 c 0,0.03175 0.0265,0.052917 0.0529,0.052917 h 0.0159 c 0.0423,0 0.0873,0.00529 0.1323,0.018521 l 0.0185,0.00794 c 0.0264,0.010583 0.0529,0.026458 0.0714,0.052917 0.0212,0.026458 0.0344,0.052917 0.0423,0.079375 l 0.008,0.037042 c 0.008,0.039687 0.0106,0.079375 0.0106,0.1217083 v 0.01323 c 0,0.026458 0.0185,0.052917 0.0476,0.0635 0.0264,0.00529 0.0582,0.015875 0.0873,0.03175 l 0.0132,0.00529 c 0.0344,0.021167 0.0688,0.047625 0.0952,0.079375 l 0.0132,0.018521 c 0.0344,0.039687 0.0529,0.089958 0.0529,0.1402291 v 0.018521 c 0,0.039687 -0.008,0.079375 -0.0212,0.1164166 -0.0106,0.03175 0,0.068792 0.0344,0.079375 l 0.0185,0.013228 c 0.0397,0.015875 0.0741,0.044979 0.10054,0.079375 0.0265,0.039687 0.037,0.084667 0.037,0.1322917 v 0.079375 c -0.005,0.026458 -0.0132,0.047625 -0.0264,0.066146 -0.0132,0.018521 -0.0132,0.044979 0,0.0635 l 0.0159,0.026458 z m -1.69333,-1.3546667 h -0.005 c -0.0106,0 -0.0159,0.013229 -0.0132,0.026458 l 0.0106,0.052917 c 0.0106,0.042333 0.0159,0.084667 0.0212,0.127 0.005,0.042333 0.0265,0.079375 0.0582,0.1058334 h 0.0106 c 0.0397,0.03175 0.0635,0.079375 0.0661,0.127 v 0.1322916 c -0.005,0.026458 0,0.052917 0.0159,0.074083 l 0.0132,0.013229 c 0.0265,0.03175 0.037,0.068792 0.0397,0.1058334 l 0.008,0.1455208 c 0,0.034396 -0.0212,0.0635 -0.0529,0.068792 l -0.0265,0.00529 c -0.0185,0 -0.0264,0.021167 -0.0264,0.039687 0,0.021167 0.008,0.044979 0.0159,0.066146 v 0.00529 c 0.008,0.026458 0.0106,0.052917 0.008,0.079375 l -0.0106,0.071441 c -0.0106,0.052917 -0.0265,0.1005417 -0.0529,0.1481667 l -0.0185,0.03175 c -0.0132,0.026458 -0.0318,0.042333 -0.0529,0.052917 -0.0265,0.010583 -0.045,0.03175 -0.0529,0.058208 l -0.0212,0.09525 c -0.0132,0.052917 -0.037,0.1058333 -0.0688,0.15875 h -0.005 c -0.0317,0.042333 -0.0714,0.079375 -0.11906,0.1058333 l -0.0317,0.021167 -0.0794,0.039688 c -0.0264,0.010583 -0.0423,0.034396 -0.0476,0.0635 l -0.0132,0.087312 c -0.008,0.052917 -0.0265,0.097896 -0.0635,0.1322917 l -0.0344,0.039688 -0.0397,0.039688 -0.0397,0.042333 c -0.0317,0.037042 -0.0794,0.052917 -0.13229,0.044979 l -0.0952,-0.018521 -0.0873,-0.010583 h -0.0238 c -0.0106,0.010583 -0.0132,0.026458 -0.005,0.042333 0.0185,0.03175 0.0476,0.052917 0.0794,0.052917 l 0.0582,0.010583 c 0.0265,0 0.0582,0.013229 0.0847,0.026458 0.0265,0.018521 0.0529,0.03175 0.0847,0.039687 h 0.005 c 0.0344,0.013229 0.0714,0.015875 0.10583,0.013229 l 0.0397,-0.00529 c 0.045,-0.00529 0.0873,0 0.12435,0.015875 l 0.0317,0.010583 c 0.0132,0.00529 0.0344,0 0.0476,-0.013229 0.0159,-0.015875 0.0317,-0.026458 0.0529,-0.034396 l 0.0212,-0.00529 c 0.0344,-0.010583 0.0688,-0.015875 0.10583,-0.015875 h 0.0212 c 0.0317,0 0.0609,0.00529 0.0873,0.021167 l 0.0106,0.00529 c 0.0185,0.00794 0.0397,0 0.0529,-0.015875 0.008,-0.018521 0.0265,-0.037042 0.045,-0.052917 l 0.0662,-0.044979 0.0423,-0.026458 0.0212,-0.013229 c 0.0265,-0.018521 0.0635,-0.026458 0.0952,-0.026458 l 0.0952,-0.00794 c 0.037,-0.00529 0.0688,-0.03175 0.0794,-0.068792 0.0106,-0.039688 0.0265,-0.079375 0.0529,-0.1137708 0.0265,-0.034396 0.0529,-0.0635 0.0794,-0.089958 0.0344,-0.026458 0.0688,-0.039688 0.10583,-0.042333 h 0.0212 c 0.0423,-0.00794 0.0741,-0.047625 0.0714,-0.089958 v -0.00529 -0.1719791 c 0.005,-0.026458 0.0159,-0.060854 0.0317,-0.087312 l 0.0529,-0.079375 0.0212,-0.026458 c 0.0159,-0.013229 0.0265,-0.03175 0.045,-0.052917 l 0.0265,-0.034396 c 0.0159,-0.026458 0.0159,-0.060854 -0.005,-0.084667 -0.0265,-0.026458 -0.0397,-0.0635 -0.045,-0.1005417 v -0.010583 c -0.005,-0.042333 -0.005,-0.087312 0.008,-0.1322917 v -0.013229 c 0.0132,-0.034396 0.0317,-0.068792 0.0529,-0.1005416 0.0212,-0.026458 0.0185,-0.0635 -0.008,-0.084667 l -0.045,-0.039688 c -0.037,-0.03175 -0.0582,-0.079375 -0.0635,-0.127 l -0.005,-0.052917 c 0,-0.015875 0,-0.034396 -0.005,-0.052917 l -0.005,-0.039687 c -0.005,-0.044979 -0.0317,-0.079375 -0.0688,-0.1058334 l -0.0185,-0.00529 c -0.0265,-0.015875 -0.0529,-0.039688 -0.0741,-0.071438 -0.0212,-0.026458 -0.0317,-0.0635 -0.0397,-0.1005417 l -0.008,-0.044979 c 0,-0.015875 -0.0106,-0.026458 -0.0265,-0.034396 l -0.0423,-0.013229 -0.0847,-0.026458 c -0.0265,-0.00529 -0.0529,-0.026458 -0.0714,-0.044979 h -0.005 c -0.0159,-0.021167 -0.0423,-0.021167 -0.0582,-0.00529 l -0.0265,0.026458 c -0.005,0.00794 -0.0106,0.010583 -0.0185,0.00794 -0.0159,0 -0.0265,-0.013229 -0.0212,-0.026458 0.005,-0.042333 -0.0106,-0.084667 -0.045,-0.111125 l -0.0344,-0.026458 -0.0794,-0.052917 c -0.0212,-0.00794 -0.0529,0 -0.0635,0.026458 l -0.0106,0.015875 c 0,0.00529 -0.008,0.00794 -0.0106,0.010583 -0.0106,0 -0.0265,0 -0.0265,-0.013229 l -0.008,-0.013233 c -0.008,-0.015875 -0.0265,-0.026458 -0.0423,-0.03175 z m -0.3175,0.2645834 -0.0132,-0.013229 c -0.0132,-0.010583 -0.0265,-0.00794 -0.0397,0.00529 -0.0185,0.03175 -0.0344,0.066146 -0.0423,0.1005416 v 0.00529 c -0.008,0.034396 -0.0397,0.058208 -0.0714,0.052917 h -0.0265 -0.005 c -0.037,0 -0.0661,0.03175 -0.0661,0.068792 0,0.047625 -0.0159,0.09525 -0.045,0.1322917 l -0.0159,0.015875 c -0.0265,0.034396 -0.0661,0.058208 -0.10583,0.071438 l -0.0212,0.00529 c -0.0264,0.00794 -0.0476,0.026458 -0.0529,0.058208 0,0.026458 -0.0159,0.052917 -0.037,0.074083 l -0.0265,0.021167 c -0.0317,0.034396 -0.0794,0.052917 -0.127,0.058208 l -0.1323,0.01323 c -0.0423,0 -0.0794,0.026458 -0.10583,0.066146 -0.0265,0.039688 -0.0661,0.066146 -0.10583,0.071438 l -0.0582,0.00529 c -0.0423,0.00529 -0.0873,0.00529 -0.13229,-0.00529 l -0.0265,-0.00529 -0.0714,-0.018521 c -0.0265,-0.00794 -0.0476,0 -0.0635,0.018521 l -0.0265,0.034396 c -0.0344,0.039687 -0.0847,0.058208 -0.13229,0.052916 l -0.17198,-0.021167 c -0.0265,0 -0.0476,-0.013229 -0.0714,-0.026458 -0.0265,-0.015875 -0.045,-0.034396 -0.0635,-0.052917 l -0.0661,-0.079375 c -0.008,-0.00529 -0.0212,-0.00794 -0.0344,-0.00529 l -0.037,0.015875 -0.14817,0.037042 c -0.0265,0.00794 -0.0609,0 -0.0873,-0.015875 -0.0265,-0.021167 -0.0582,-0.026458 -0.09,-0.026458 h -0.0344 c -0.0317,0.00794 -0.0529,0.042333 -0.0423,0.074083 l 0.0106,0.052917 c 0.008,0.026458 0.005,0.058208 -0.008,0.084667 -0.0132,0.026458 -0.0106,0.052917 0.008,0.079375 l 0.0159,0.021167 c 0.0212,0.03175 0.0529,0.058208 0.0794,0.084667 0.0265,0.026458 0.0529,0.052917 0.0741,0.087312 l 0.0397,0.071438 c 0.0212,0.037042 0.0529,0.058208 0.0952,0.058208 0.0397,0 0.0794,0.013229 0.11112,0.039687 l 0.0794,0.074083 c 0.0212,0.018521 0.0529,0.021167 0.0741,0.00529 l 0.0132,-0.00529 c 0.0159,0 0.0265,0.010583 0.0265,0.026458 v 0.013229 c 0,0.034396 0.0265,0.066146 0.0609,0.079375 l 0.11907,0.026458 c 0.0423,0.013229 0.0847,0.026458 0.12435,0.052917 h 0.0212 c 0.0212,0 0.0397,-0.018521 0.037,-0.042333 v -0.092604 c 0,-0.026458 0.0106,-0.052917 0.0317,-0.0635 l 0.0132,-0.00529 c 0.0132,0.00529 0.0265,0.015875 0.0212,0.026458 v 0.044979 c 0,0.034396 0.0106,0.066146 0.0344,0.089958 0.0265,0.026458 0.0608,0.03175 0.09,0.021167 0.0317,-0.013229 0.0635,-0.015875 0.0979,-0.013229 l 0.0979,0.00529 c 0.0476,0.00529 0.0926,0 0.13229,-0.018521 0.0476,-0.015875 0.0873,-0.037042 0.12436,-0.066146 l 0.0159,-0.010583 0.0794,-0.071438 c 0.0264,-0.026458 0.0608,-0.039687 0.0926,-0.039687 h 0.10583 c 0.0529,-0.00529 0.10054,-0.052917 0.10584,-0.1058339 l 0.0106,-0.052917 c 0,-0.034396 0.0159,-0.066146 0.0397,-0.092604 0.0265,-0.026458 0.0529,-0.042333 0.0794,-0.052917 l 0.0317,-0.013229 c 0.045,-0.018521 0.0794,-0.058208 0.0953,-0.1058334 l 0.0159,-0.0635 c 0.0132,-0.052917 0.0397,-0.1058333 0.0794,-0.1402291 l 0.005,-0.00529 c 0.0317,-0.026458 0.037,-0.079375 0.0159,-0.1164167 l -0.008,-0.018522 c -0.0185,-0.026458 -0.0212,-0.066146 -0.008,-0.1005417 0.0132,-0.037042 0.0265,-0.068792 0.0476,-0.1005416 l 0.0265,-0.037042 c 0.0106,-0.021167 0.0106,-0.052917 -0.005,-0.071438 -0.0159,-0.021167 -0.0265,-0.047625 -0.0265,-0.074083 l -0.005,-0.037042 v -0.089958 c 0.005,-0.026458 0,-0.060854 -0.008,-0.087312 l -0.0106,-0.03175 z m -0.37836,-0.2010834 v -0.00794 c 0,-0.026458 -0.0159,-0.042333 -0.037,-0.042333 h -0.0688 c -0.0265,0.00529 -0.0529,0.00529 -0.0741,0 h -0.11906 c -0.0609,0 -0.11907,-0.010583 -0.17728,-0.026458 l -0.0635,-0.015873 -0.0529,-0.015875 -0.11906,-0.039687 c -0.0635,-0.018521 -0.11113,-0.060854 -0.14023,-0.1190625 l -0.0132,-0.026458 c -0.0185,-0.039687 -0.0582,-0.060854 -0.0979,-0.052917 -0.045,0 -0.09,0 -0.13229,-0.021167 l -0.0318,-0.013229 c -0.0608,-0.026458 -0.10583,-0.079375 -0.10583,-0.1508124 l -0.0106,-0.071437 c -0.008,-0.037042 -0.0317,-0.071438 -0.0635,-0.084667 -0.037,-0.015875 -0.0714,-0.037042 -0.10583,-0.060854 l -0.0132,-0.00794 c -0.0397,-0.03175 -0.0741,-0.074083 -0.0926,-0.1243542 l -0.005,-0.015875 c -0.0132,-0.042333 -0.0159,-0.087313 -0.005,-0.1322916 l 0.005,-0.015875 c 0.0106,-0.034396 0.0132,-0.068792 0.0132,-0.1058334 0,-0.03175 -0.0132,-0.0635 -0.037,-0.087312 l -0.037,-0.034396 c -0.0423,-0.034396 -0.0688,-0.084667 -0.0714,-0.1402292 -0.005,-0.058208 -0.005,-0.1137708 0.005,-0.1693333 v -0.00794 -0.00794 c 0,-0.03175 -0.0265,-0.052917 -0.0529,-0.052917 h -0.008 c -0.0344,0 -0.0635,0.021167 -0.0794,0.052917 -0.0132,0.037042 -0.0344,0.066146 -0.0582,0.09525 l -0.0106,0.013229 -0.0529,0.052917 -0.0265,0.026458 c -0.0265,0.026464 -0.0423,0.066151 -0.0476,0.1058385 -0.005,0.039687 -0.0159,0.079375 -0.0317,0.1164167 l -0.005,0.013229 c -0.0132,0.03175 -0.0344,0.060854 -0.0608,0.079375 -0.0265,0.021167 -0.045,0.052917 -0.045,0.084667 l -0.005,0.1217083 c 0,0.052917 -0.008,0.1058334 -0.0265,0.15875 l -0.005,0.021167 c -0.0132,0.034396 0,0.071437 0.0317,0.087312 l 0.11112,0.047625 0.0106,0.00529 c 0.008,0 0.0106,0.00529 0.0132,0.013229 0.008,0.010583 0,0.026458 -0.008,0.026458 l -0.0265,0.013229 c -0.0159,0.00529 -0.0265,0.021169 -0.0317,0.03969 l -0.005,0.026458 v 0.00529 l -0.0265,0.1481667 c -0.005,0.021167 -0.005,0.044979 -0.005,0.068792 0,0.021167 0.0132,0.039687 0.0317,0.047625 l 0.0582,0.026458 c 0.0265,0.015875 0.0582,0.034396 0.0794,0.052917 l 0.0265,0.021167 c 0.008,0.010583 0.0212,0.021167 0.0317,0.026458 l 0.0106,0.010583 c 0.0185,0.015875 0.0317,0.037042 0.037,0.060854 l 0.0265,0.1190625 c 0,0.03175 0.0265,0.058208 0.0529,0.066146 l 0.0423,0.013229 c 0,0 0.008,0 0.0132,0.00529 l 0.0529,0.015875 c 0.0423,0.013229 0.0794,0.037042 0.11112,0.068792 0.0317,0.026458 0.0635,0.060854 0.09,0.097896 l 0.0106,0.010583 c 0.0212,0.026458 0.0529,0.039688 0.0847,0.03175 0.0317,-0.00794 0.0661,-0.010583 0.10054,-0.010583 h 0.0397 c 0.0265,0 0.0609,0.00794 0.09,0.026458 0.0265,0.015875 0.0609,0.026458 0.0926,0.039688 h 0.008 c 0.0317,0.013229 0.0661,0.00794 0.0926,-0.010583 0.0264,-0.021167 0.0608,-0.03175 0.0952,-0.03175 l 0.12435,0.00794 c 0.0265,0 0.0529,-0.00529 0.0661,-0.026458 h 0.005 l 0.045,-0.042333 0.0132,-0.013229 c 0.0212,-0.026458 0.0529,-0.037042 0.0847,-0.039687 h 0.11906 c 0.0317,0 0.0609,-0.026458 0.0741,-0.052917 0.0132,-0.026458 0.0397,-0.047625 0.0714,-0.052917 l 0.0529,-0.010583 c 0.0212,0 0.0397,-0.018521 0.0476,-0.042333 0.008,-0.026458 0.0212,-0.047625 0.0397,-0.0635 l 0.0423,-0.042333 c 0.0265,-0.026458 0.0397,-0.052917 0.045,-0.084667 z"
       style="stroke-width:0.26458332;fill-opacity:1" />
  </g>
</svg>
