<?xml version="1.0" encoding="UTF-8" standalone="no"?>
<!-- Created with Inkscape (http://www.inkscape.org/) -->

<svg
   xmlns:dc="http://purl.org/dc/elements/1.1/"
   xmlns:cc="http://creativecommons.org/ns#"
   xmlns:rdf="http://www.w3.org/1999/02/22-rdf-syntax-ns#"
   xmlns:svg="http://www.w3.org/2000/svg"
   xmlns="http://www.w3.org/2000/svg"
   xmlns:sodipodi="http://sodipodi.sourceforge.net/DTD/sodipodi-0.dtd"
   xmlns:inkscape="http://www.inkscape.org/namespaces/inkscape"
   width="3.175mm"
   height="6.2441664mm"
   viewBox="0 0 3.1749999 6.2441664"
   version="1.1"
   id="svg852"
   inkscape:version="0.92.3 (2405546, 2018-03-11)"
   sodipodi:docname="help.svg">
  <defs
     id="defs846" />
  <sodipodi:namedview
     id="base"
     pagecolor="#ffffff"
     bordercolor="#666666"
     borderopacity="1.0"
     inkscape:pageopacity="0.0"
     inkscape:pageshadow="2"
     inkscape:zoom="22.4"
     inkscape:cx="-18.888809"
     inkscape:cy="14.031692"
     inkscape:document-units="mm"
     inkscape:current-layer="g860"
     showgrid="false"
     inkscape:window-width="3840"
     inkscape:window-height="2066"
     inkscape:window-x="-11"
     inkscape:window-y="-11"
     inkscape:window-maximized="1" />
  <metadata
     id="metadata849">
    <rdf:RDF>
      <cc:Work
         rdf:about="">
        <dc:format>image/svg+xml</dc:format>
        <dc:type
           rdf:resource="http://purl.org/dc/dcmitype/StillImage" />
        <dc:title></dc:title>
      </cc:Work>
    </rdf:RDF>
  </metadata>
  <g
     inkscape:label="Layer 1"
     inkscape:groupmode="layer"
     id="layer1"
     transform="translate(273.73035,-347.73574)">
    <g
       id="g856"
       transform="matrix(0.26458333,0,0,0.26458333,-277.43452,345.38095)">
      <path
         inkscape:connector-curvature="0"
         d="m 20,25.3 c -0.6,0 -1,-0.4 -1,-1 v -4.4 c 0,-0.6 0.4,-1 1,-1 2.2,0 4,-1.8 4,-4 0,-2.2 -1.8,-4 -4,-4 -2.2,0 -4,1.8 -4,4 0,0.6 -0.4,1 -1,1 -0.6,0 -1,-0.4 -1,-1 0,-3.3 2.7,-6 6,-6 3.3,0 6,2.7 6,6 0,3 -2.2,5.4 -5,5.9 v 3.5 c 0,0.6 -0.4,1 -1,1 z"
         id="path854" />
    </g>
    <g
       id="g860"
       transform="matrix(0.26458333,0,0,0.26458333,-277.43452,345.38095)" />
    <g
       id="g864"
       transform="matrix(0.26458333,0,0,0.26458333,-277.43452,345.38095)">
      <path
         inkscape:connector-curvature="0"
         d="m 20,32.5 c -0.6,0 -1,-0.4 -1,-1 v -2.7 c 0,-0.6 0.4,-1 1,-1 0.6,0 1,0.4 1,1 v 2.7 c 0,0.6 -0.4,1 -1,1 z"
         id="path862" />
    </g>
  </g>
</svg>
