<?xml version="1.0" encoding="UTF-8" standalone="no"?>
<!-- Created with Inkscape (http://www.inkscape.org/) -->

<svg
   xmlns:dc="http://purl.org/dc/elements/1.1/"
   xmlns:cc="http://creativecommons.org/ns#"
   xmlns:rdf="http://www.w3.org/1999/02/22-rdf-syntax-ns#"
   xmlns:svg="http://www.w3.org/2000/svg"
   xmlns="http://www.w3.org/2000/svg"
   xmlns:sodipodi="http://sodipodi.sourceforge.net/DTD/sodipodi-0.dtd"
   xmlns:inkscape="http://www.inkscape.org/namespaces/inkscape"
   width="5.5562501mm"
   height="6.50875mm"
   viewBox="0 0 5.5562501 6.50875"
   version="1.1"
   id="svg8"
   inkscape:version="0.92.3 (2405546, 2018-03-11)"
   sodipodi:docname="reset.svg">
  <defs
     id="defs2" />
  <sodipodi:namedview
     id="base"
     pagecolor="#ffffff"
     bordercolor="#666666"
     borderopacity="1.0"
     inkscape:pageopacity="0.0"
     inkscape:pageshadow="2"
     inkscape:zoom="31.678384"
     inkscape:cx="18.618001"
     inkscape:cy="20.863724"
     inkscape:document-units="mm"
     inkscape:current-layer="g834"
     showgrid="false"
     inkscape:window-width="3840"
     inkscape:window-height="2066"
     inkscape:window-x="-11"
     inkscape:window-y="-11"
     inkscape:window-maximized="1" />
  <metadata
     id="metadata5">
    <rdf:RDF>
      <cc:Work
         rdf:about="">
        <dc:format>image/svg+xml</dc:format>
        <dc:type
           rdf:resource="http://purl.org/dc/dcmitype/StillImage" />
        <dc:title></dc:title>
      </cc:Work>
    </rdf:RDF>
  </metadata>
  <g
     id="layer1"
     transform="translate(480.54003,-616.23113)">
    <g
       id="g834"
       transform="matrix(0.26458333,0,0,0.26458333,-483.05357,613.74405)">
      <g
         id="g821">
        <path
           id="path819"
           d="m 30.5,20 c 0,0.6 -0.4,1 -1,1 -0.5,0 -1,-0.4 -1,-1 0,-4.7 -3.8,-8.6 -8.5,-8.6 -4.7,0 -8.5,3.8 -8.5,8.6 0,4.7 3.8,8.6 8.5,8.6 l -1.7,-1.7 c -0.4,-0.4 -0.4,-1 0,-1.4 0.4,-0.4 1,-0.4 1.4,0 l 3.1,3.1 0.2,0.1 0.2,0.2 c 0.2,0.2 0.3,0.4 0.3,0.7 0,0.3 -0.1,0.5 -0.3,0.7 l -3.4,3.4 C 19.5,33.9 19.2,34 19,34 c -0.2,0 -0.5,-0.1 -0.7,-0.3 -0.4,-0.4 -0.4,-1 0,-1.4 L 20,30.6 C 14.2,30.6 9.5,25.9 9.5,20 9.5,14.1 14.2,9.4 20,9.4 c 5.8,0 10.5,4.8 10.5,10.6 z"
           inkscape:connector-curvature="0" />
      </g>
    </g>
  </g>
</svg>
