<?xml version="1.0" encoding="UTF-8" standalone="no"?>
<!-- Created with Inkscape (http://www.inkscape.org/) -->

<svg
   xmlns:dc="http://purl.org/dc/elements/1.1/"
   xmlns:cc="http://creativecommons.org/ns#"
   xmlns:rdf="http://www.w3.org/1999/02/22-rdf-syntax-ns#"
   xmlns:svg="http://www.w3.org/2000/svg"
   xmlns="http://www.w3.org/2000/svg"
   xmlns:sodipodi="http://sodipodi.sourceforge.net/DTD/sodipodi-0.dtd"
   xmlns:inkscape="http://www.inkscape.org/namespaces/inkscape"
   width="5.5562501mm"
   height="5.3181248mm"
   viewBox="0 0 5.55625 5.3181248"
   version="1.1"
   id="svg852"
   inkscape:version="0.92.3 (2405546, 2018-03-11)"
   sodipodi:docname="star_empty.svg">
  <defs
     id="defs846" />
  <sodipodi:namedview
     id="base"
     pagecolor="#ffffff"
     bordercolor="#666666"
     borderopacity="1.0"
     inkscape:pageopacity="0.0"
     inkscape:pageshadow="2"
     inkscape:zoom="22.4"
     inkscape:cx="42.770504"
     inkscape:cy="-7.6450251"
     inkscape:document-units="mm"
     inkscape:current-layer="g934"
     showgrid="false"
     inkscape:window-width="3840"
     inkscape:window-height="2066"
     inkscape:window-x="-11"
     inkscape:window-y="-11"
     inkscape:window-maximized="1" />
  <metadata
     id="metadata849">
    <rdf:RDF>
      <cc:Work
         rdf:about="">
        <dc:format>image/svg+xml</dc:format>
        <dc:type
           rdf:resource="http://purl.org/dc/dcmitype/StillImage" />
        <dc:title></dc:title>
      </cc:Work>
    </rdf:RDF>
  </metadata>
  <g
     inkscape:label="Layer 1"
     inkscape:groupmode="layer"
     id="layer1"
     transform="translate(290.04437,-330.64226)">
    <g
       id="g860"
       transform="matrix(0.26458333,0,0,0.26458333,-277.43452,345.38095)">
      <g
         transform="matrix(3.7795276,0,0,3.7795276,1786.2768,-2322.1215)"
         id="layer1-9"
         style="fill:#ffffff;fill-opacity:1">
        <g
           transform="matrix(0.26458333,0,0,0.26458333,-483.05357,613.74405)"
           id="g834"
           style="fill:#ffffff;fill-opacity:1">
          <g
             id="g821"
             style="fill:#ffffff;fill-opacity:1">
            <path
               inkscape:connector-curvature="0"
               d="m 30.5,20 c 0,0.6 -0.4,1 -1,1 -0.5,0 -1,-0.4 -1,-1 0,-4.7 -3.8,-8.6 -8.5,-8.6 -4.7,0 -8.5,3.8 -8.5,8.6 0,4.7 3.8,8.6 8.5,8.6 l -1.7,-1.7 c -0.4,-0.4 -0.4,-1 0,-1.4 0.4,-0.4 1,-0.4 1.4,0 l 3.1,3.1 0.2,0.1 0.2,0.2 c 0.2,0.2 0.3,0.4 0.3,0.7 0,0.3 -0.1,0.5 -0.3,0.7 l -3.4,3.4 C 19.5,33.9 19.2,34 19,34 c -0.2,0 -0.5,-0.1 -0.7,-0.3 -0.4,-0.4 -0.4,-1 0,-1.4 L 20,30.6 C 14.2,30.6 9.5,25.9 9.5,20 9.5,14.1 14.2,9.4 20,9.4 c 5.8,0 10.5,4.8 10.5,10.6 z"
               id="path819"
               style="fill:#ffffff;fill-opacity:1" />
          </g>
        </g>
      </g>
      <g
         id="g934">
        <path
           style="fill:none;stroke:#000000;stroke-opacity:1"
           inkscape:connector-curvature="0"
           d="m -27.159285,-47.8053 c 0,0.2 -0.104,0.4 -0.312,0.6 l -4.363,4.2 1.033,6.1 c 0.008,0 0.012,0.1 0.012,0.2 0,0.2 -0.044,0.3 -0.132,0.4 -0.08,0.1 -0.2,0.2 -0.361,0.2 -0.152,0 -0.312,0 -0.48,-0.1 l -5.397,-2.9 -5.3966,2.9 c -0.1763,0.1 -0.3366,0.1 -0.4808,0.1 -0.1683,0 -0.2965,-0.1 -0.3846,-0.2 -0.0802,-0.1 -0.1202,-0.2 -0.1202,-0.4 0,0 0.008,-0.1 0.024,-0.2 l 1.0337,-6.1 -4.375,-4.2 c -0.2003,-0.2 -0.3005,-0.4 -0.3005,-0.6 0,-0.3 0.2244,-0.5 0.6731,-0.5 l 6.0336,-0.9 2.7043,-5.5 c 0.152,-0.3 0.349,-0.5 0.589,-0.5 0.24,0 0.437,0.2 0.589,0.5 l 2.704,5.5 6.034,0.9 c 0.449,0 0.673,0.2 0.673,0.5"
           id="path905" />
      </g>
    </g>
  </g>
</svg>
