<?xml version="1.0" encoding="UTF-8" standalone="no"?>
<svg
   xmlns:dc="http://purl.org/dc/elements/1.1/"
   xmlns:cc="http://creativecommons.org/ns#"
   xmlns:rdf="http://www.w3.org/1999/02/22-rdf-syntax-ns#"
   xmlns:svg="http://www.w3.org/2000/svg"
   xmlns="http://www.w3.org/2000/svg"
   xmlns:sodipodi="http://sodipodi.sourceforge.net/DTD/sodipodi-0.dtd"
   xmlns:inkscape="http://www.inkscape.org/namespaces/inkscape"
   version="1.1"
   viewBox="0 0 368.08801 335.53"
   xml:space="preserve"
   id="svg1013"
   sodipodi:docname="details.svg"
   width="368.08801"
   height="335.53"
   inkscape:version="0.92.3 (2405546, 2018-03-11)"><metadata
     id="metadata1019"><rdf:RDF><cc:Work
         rdf:about=""><dc:format>image/svg+xml</dc:format><dc:type
           rdf:resource="http://purl.org/dc/dcmitype/StillImage" /></cc:Work></rdf:RDF></metadata><defs
     id="defs1017" /><sodipodi:namedview
     pagecolor="#ffffff"
     bordercolor="#666666"
     borderopacity="1"
     objecttolerance="10"
     gridtolerance="10"
     guidetolerance="10"
     inkscape:pageopacity="0"
     inkscape:pageshadow="2"
     inkscape:window-width="3840"
     inkscape:window-height="2066"
     id="namedview1015"
     showgrid="false"
     inkscape:zoom="0.4609375"
     inkscape:cx="-254.19329"
     inkscape:cy="175.698"
     inkscape:window-x="-11"
     inkscape:window-y="-11"
     inkscape:window-maximized="1"
     inkscape:current-layer="svg1013" /><g
     id="g1011"
     transform="translate(-71.956,-96.168)"
     style="fill:#254651;fill-opacity:1"><g
       id="_x32_0-Search"
       style="fill:#254651;fill-opacity:1" /><g
       id="_x31_9-Web_Page"
       style="fill:#254651;fill-opacity:1" /><g
       id="_x31_8-Wifi"
       style="fill:#254651;fill-opacity:1" /><g
       id="_x31_7-Hotspot"
       style="fill:#254651;fill-opacity:1" /><g
       id="_x31_6-Satelite"
       style="fill:#254651;fill-opacity:1" /><g
       id="_x31_5-Receiver"
       style="fill:#254651;fill-opacity:1" /><g
       id="_x31_4-Receiver"
       style="fill:#254651;fill-opacity:1" /><g
       id="_x31_3-Receiver"
       style="fill:#254651;fill-opacity:1" /><g
       id="_x31_2-Ethernet"
       style="fill:#254651;fill-opacity:1" /><g
       id="_x31_1-Code"
       style="fill:#254651;fill-opacity:1"><g
         id="g998"
         style="fill:#254651;fill-opacity:1"><path
           d="m 398.905,96.168 h -285.81 c -22.684,0 -41.139,18.455 -41.139,41.139 v 177.387 c 0,22.684 18.455,41.139 41.139,41.139 h 105.759 l -9.859,49.865 h -31.964 c -7.18,0 -13,5.82 -13,13 0,7.18 5.82,13 13,13 8.213,0 149.678,0 157.938,0 7.18,0 13,-5.82 13,-13 0,-7.18 -5.82,-13 -13,-13 h -31.964 l -9.859,-49.865 h 105.759 c 22.684,0 41.139,-18.455 41.139,-41.139 V 137.307 C 440.043,114.623 421.589,96.168 398.905,96.168 Z M 276.501,405.697 h -41.003 l 9.859,-49.865 h 21.284 z m 137.542,-91.004 c 0,8.348 -6.792,15.139 -15.139,15.139 -10.026,0 -268.566,0 -285.809,0 -8.348,0 -15.139,-6.791 -15.139,-15.139 V 137.307 c 0,-8.348 6.791,-15.139 15.139,-15.139 h 285.81 c 8.348,0 15.139,6.791 15.139,15.139 v 177.386 z"
           style="fill:#254651;fill-opacity:1"
           id="path990"
           inkscape:connector-curvature="0" /><path
           d="m 204.207,162.6 c -5.077,-5.077 -13.308,-5.077 -18.385,0 l -53.21,53.21 c -5.073,5.074 -5.076,13.309 0,18.385 l 53.21,53.21 c 5.077,5.077 13.308,5.077 18.385,0 5.077,-5.077 5.077,-13.308 0,-18.385 l -44.018,-44.018 44.018,-44.018 c 5.076,-5.076 5.076,-13.307 0,-18.384 z"
           style="fill:#254651;fill-opacity:1"
           id="path992"
           inkscape:connector-curvature="0" /><path
           d="m 326.178,162.6 c -5.077,-5.077 -13.308,-5.077 -18.385,0 -5.077,5.077 -5.077,13.308 0,18.385 l 44.018,44.018 -44.018,44.018 c -5.077,5.077 -5.077,13.308 0,18.385 5.086,5.086 13.317,5.068 18.385,0 l 53.21,-53.21 c 5.073,-5.074 5.076,-13.309 0,-18.385 z"
           style="fill:#254651;fill-opacity:1"
           id="path994"
           inkscape:connector-curvature="0" /><path
           d="m 292.717,160.451 c -6.263,-3.508 -14.186,-1.275 -17.695,4.989 l -60.729,108.415 c -3.509,6.264 -1.275,14.186 4.989,17.695 6.269,3.511 14.189,1.271 17.695,-4.989 l 60.729,-108.415 c 3.509,-6.264 1.275,-14.187 -4.989,-17.695 z"
           style="fill:#254651;fill-opacity:1"
           id="path996"
           inkscape:connector-curvature="0" /></g></g><g
       id="_x31_0-Homegroup"
       style="fill:#254651;fill-opacity:1" /><g
       id="_x30_9-Sharing_Option"
       style="fill:#254651;fill-opacity:1" /><g
       id="_x30_8-Data"
       style="fill:#254651;fill-opacity:1" /><g
       id="_x30_7-Connectivity"
       style="fill:#254651;fill-opacity:1" /><g
       id="_x30_6-Computer"
       style="fill:#254651;fill-opacity:1" /><g
       id="_x30_5-Laptop"
       style="fill:#254651;fill-opacity:1" /><g
       id="_x30_4-Mobile"
       style="fill:#254651;fill-opacity:1" /><g
       id="_x30_3-Network"
       style="fill:#254651;fill-opacity:1" /><g
       id="_x30_2-Click"
       style="fill:#254651;fill-opacity:1" /><g
       id="_x30_1-Website"
       style="fill:#254651;fill-opacity:1" /></g></svg>