<?xml version="1.0" encoding="UTF-8" standalone="no"?>
<svg
   xmlns:dc="http://purl.org/dc/elements/1.1/"
   xmlns:cc="http://creativecommons.org/ns#"
   xmlns:rdf="http://www.w3.org/1999/02/22-rdf-syntax-ns#"
   xmlns:svg="http://www.w3.org/2000/svg"
   xmlns="http://www.w3.org/2000/svg"
   xmlns:sodipodi="http://sodipodi.sourceforge.net/DTD/sodipodi-0.dtd"
   xmlns:inkscape="http://www.inkscape.org/namespaces/inkscape"
   enable-background="new 0 0 32 32"
   height="26.896664"
   id="Слой_1"
   version="1.1"
   viewBox="0 0 32.000183 26.896664"
   width="32.000183"
   xml:space="preserve"
   sodipodi:docname="goBack.svg"
   inkscape:version="0.92.3 (2405546, 2018-03-11)"><metadata
     id="metadata48"><rdf:RDF><cc:Work
         rdf:about=""><dc:format>image/svg+xml</dc:format><dc:type
           rdf:resource="http://purl.org/dc/dcmitype/StillImage" /></cc:Work></rdf:RDF></metadata><defs
     id="defs46" /><sodipodi:namedview
     pagecolor="#ffffff"
     bordercolor="#666666"
     borderopacity="1"
     objecttolerance="10"
     gridtolerance="10"
     guidetolerance="10"
     inkscape:pageopacity="0"
     inkscape:pageshadow="2"
     inkscape:window-width="3840"
     inkscape:window-height="2066"
     id="namedview44"
     showgrid="false"
     inkscape:zoom="57.59375"
     inkscape:cx="16.608882"
     inkscape:cy="13.897"
     inkscape:window-x="-11"
     inkscape:window-y="-11"
     inkscape:window-maximized="1"
     inkscape:current-layer="Слой_1" /><path
     d="m 30.939005,26.896663 c -0.011,0 -0.023,0 -0.034,-0.001 -0.506,-0.017 -0.825,-0.409 -0.868,-0.913 -0.034,-0.371 -1.03,-9.347 -15.038999,-9.337 l -0.031,5.739 c 0,0.387 -0.223,0.739 -0.573,0.904 -0.347,0.166 -0.764,0.115 -1.061,-0.132 l -12.96800044,-10.743 c -0.232,-0.19 -0.36599999837,-0.475 -0.3649999983747,-0.774 C 0.00100556,11.339663 0.13600556,11.055663 0.36800556,10.866663 L 13.335006,0.22366322 c 0.299,-0.244 0.712,-0.291 1.06,-0.128 0.349,0.166 0.571,0.518 0.571,0.903 l 0.031,5.61299998 c 5.812,0.185 10.311999,2.054 13.229999,5.4679998 4.748,5.556 3.688,13.63 3.639,13.966 -0.074,0.49 -0.433,0.851 -0.927,0.851 z m -16.971999,-12.267 c 0.001,0 0.002,0 0.002,0 10.006999,0.006 13.830999,3.385 16.013999,6.369 -0.319,-2.391 -1.252,-5.272 -3.281,-7.626 -2.698,-3.128 -7.044999,-4.7759998 -12.734999,-4.7759998 -0.553,0 -1,-0.447 -1,-1 v -4.493 l -10.3890004,8.5419998 10.3890004,8.622 v -4.638 c 0,-0.266 0.105,-0.521 0.294,-0.708 0.187,-0.187 0.441,-0.292 0.706,-0.292 z"
     id="Arrow_Right_2_"
     inkscape:connector-curvature="0"
     style="fill:#254651;stroke:none;fill-opacity:1" /><g
     id="g31"
     transform="translate(0.00117739,-3.0003368)" /><g
     id="g33"
     transform="translate(0.00117739,-3.0003368)" /><g
     id="g35"
     transform="translate(0.00117739,-3.0003368)" /><g
     id="g37"
     transform="translate(0.00117739,-3.0003368)" /><g
     id="g39"
     transform="translate(0.00117739,-3.0003368)" /><g
     id="g41"
     transform="translate(0.00117739,-3.0003368)" /></svg>