<?xml version="1.0" encoding="UTF-8" standalone="no"?>
<svg
   xmlns:dc="http://purl.org/dc/elements/1.1/"
   xmlns:cc="http://creativecommons.org/ns#"
   xmlns:rdf="http://www.w3.org/1999/02/22-rdf-syntax-ns#"
   xmlns:svg="http://www.w3.org/2000/svg"
   xmlns="http://www.w3.org/2000/svg"
   xmlns:sodipodi="http://sodipodi.sourceforge.net/DTD/sodipodi-0.dtd"
   xmlns:inkscape="http://www.inkscape.org/namespaces/inkscape"
   xml:space="preserve"
   viewBox="0 0 512.008 512.008"
   y="0px"
   x="0px"
   id="Layer_1"
   version="1.1"
   sodipodi:docname="bulbOn.svg"
   inkscape:version="0.92.3 (2405546, 2018-03-11)"><sodipodi:namedview
   pagecolor="#ffffff"
   bordercolor="#666666"
   borderopacity="1"
   objecttolerance="10"
   gridtolerance="10"
   guidetolerance="10"
   inkscape:pageopacity="0"
   inkscape:pageshadow="2"
   inkscape:window-width="3840"
   inkscape:window-height="2066"
   id="namedview1084"
   showgrid="false"
   inkscape:pagecheckerboard="true"
   showborder="true"
   inkscape:zoom="1.7997766"
   inkscape:cx="383.6072"
   inkscape:cy="131.68776"
   inkscape:window-x="-11"
   inkscape:window-y="-11"
   inkscape:window-maximized="1"
   inkscape:current-layer="Layer_1" /><metadata
   id="metadata963"><rdf:RDF><cc:Work
       rdf:about=""><dc:format>image/svg+xml</dc:format><dc:type
         rdf:resource="http://purl.org/dc/dcmitype/StillImage" /><dc:title></dc:title></cc:Work></rdf:RDF></metadata><defs
   id="defs961">
		
	</defs>
<g
   id="g956">
	
	
	
	
	
	
	
	
	
	
	
	
	<g
   transform="matrix(1,0,0,-1,0,512.00755)"
   id="g998"><g
     id="g892">
		<path
   style="fill:#868491"
   d="m 280.01,464.008 h -48 c -4.422,0 -8,3.578 -8,8 v 8 c 0,17.648 14.352,32 32,32 17.648,0 32,-14.352 32,-32 v -8 c 0,-4.422 -3.578,-8 -8,-8 z"
   id="path890" />
	</g><g
     id="g896">
		<path
   style="fill:#5c546a"
   d="M 256.002,464.008 H 232.01 c -4.422,0 -8,3.578 -8,8 v 8 c 0,17.646 14.347,31.995 31.992,31.999 v -47.999 z"
   id="path894" />
	</g><path
     id="path898"
     d="M 381.983,49.895 C 344.592,14.754 295.616,-2.847 244.249,0.375 150.639,6.2 75.014,84.286 72.092,178.149 c -2.156,69.547 34.375,133.578 95.344,167.117 15.156,8.344 24.57,24.367 24.57,41.828 v 60.914 c 0,17.648 14.352,32 32,32 h 64 c 17.648,0 32,-14.352 32,-32 v -60.914 c 0,-17.445 9.484,-33.508 24.766,-41.93 58.742,-32.406 95.234,-94.156 95.234,-161.156 0,-50.578 -21.148,-99.461 -58.023,-134.113 z"
     class="bulb__outside"
     style="fill:#ffcd00;fill-opacity:1" /><g
     id="g904">
		<circle
   class="bulb__inside"
   cx="256.00201"
   cy="184.008"
   r="128"
   id="circle902"
   style="fill:#ffe671;fill-opacity:1" />
	</g><g
     id="g910">
		<g
   id="g908">
			<path
   class="bulb__wire"
   d="m 283.986,232.008 c -10.633,0 -16.07,-6.203 -20.031,-10.727 -3.492,-3.984 -4.883,-5.273 -8,-5.273 -3.102,0 -4.484,1.289 -7.961,5.266 -3.734,4.273 -9.383,10.734 -20.016,10.734 -10.625,0 -16.273,-6.461 -20.008,-10.734 -3.477,-3.977 -4.859,-5.266 -7.961,-5.266 -4.422,0 -8,-3.578 -8,-8 0,-4.422 3.578,-8 8,-8 10.625,0 16.273,6.461 20.008,10.734 3.477,3.977 4.859,5.266 7.961,5.266 3.102,0 4.492,-1.289 7.969,-5.266 3.734,-4.273 9.383,-10.734 20.008,-10.734 10.633,0 16.07,6.203 20.031,10.727 3.492,3.984 4.883,5.273 8,5.273 3.109,0 4.5,-1.289 7.992,-5.266 3.742,-4.273 9.391,-10.734 20.031,-10.734 4.422,0 8,3.578 8,8 0,4.422 -3.578,8 -8,8 -3.117,0 -4.508,1.289 -8,5.273 -3.742,4.274 -9.39,10.727 -20.023,10.727 z"
   id="path906"
   style="fill:#ffffff;fill-opacity:1" />
		</g>
	</g><g
     id="g916">
		<g
   id="g914">
			<path
   style="fill:#5c546a"
   d="m 232.002,384.008 c -3.68,0 -6.992,-2.555 -7.813,-6.297 l -40,-184 c -0.938,-4.32 1.805,-8.578 6.117,-9.523 4.344,-0.953 8.578,1.805 9.523,6.117 l 40,184 c 0.938,4.32 -1.805,8.578 -6.117,9.523 -0.577,0.126 -1.148,0.18 -1.71,0.18 z"
   id="path912" />
		</g>
	</g><g
     id="g922">
		<g
   id="g920">
			<path
   style="fill:#5c546a"
   d="m 280.017,384.008 c -0.563,0 -1.133,-0.055 -1.711,-0.18 -4.313,-0.945 -7.055,-5.203 -6.117,-9.523 l 40,-184 c 0.945,-4.313 5.164,-7.063 9.523,-6.117 4.313,0.945 7.055,5.203 6.117,9.523 l -40,184 c -0.819,3.743 -4.132,6.297 -7.812,6.297 z"
   id="path918" />
		</g>
	</g><g
     id="g926">
		<path
   style="fill:#b4b6bc"
   d="m 190.633,376.008 c 0.851,3.593 1.374,7.293 1.374,11.086 v 60.914 c 0,17.648 14.352,32 32,32 h 64 c 17.648,0 32,-14.352 32,-32 v -60.914 c 0,-3.79 0.527,-7.491 1.384,-11.086 z"
   id="path924" />
	</g><g
     id="g930">
		<path
   style="fill:#868491"
   d="m 256.002,376.008 h -65.369 c 0.851,3.593 1.374,7.293 1.374,11.086 v 60.914 c 0,17.648 14.352,32 32,32 h 31.995 z"
   id="path928" />
	</g><g
     id="g936">
		<g
   id="g934">
			<rect
   x="256.00201"
   y="400.008"
   style="fill:#868491"
   width="64"
   height="16"
   id="rect932" />
		</g>
	</g><g
     id="g942">
		<g
   id="g940">
			<rect
   x="256.00601"
   y="432.008"
   style="fill:#868491"
   width="64"
   height="16"
   id="rect938" />
		</g>
	</g><g
     id="g948">
		<g
   id="g946">
			<rect
   x="192.002"
   y="400.008"
   style="fill:#5c546a"
   width="64"
   height="16"
   id="rect944" />
		</g>
	</g><g
     id="g954">
		<g
   id="g952">
			<rect
   x="192.002"
   y="432.008"
   style="fill:#5c546a"
   width="64"
   height="16"
   id="rect950" />
		</g>
	</g></g>
</g>
</svg>