<svg xmlns="http://www.w3.org/2000/svg" xmlns:xlink="http://www.w3.org/1999/xlink" viewBox="0 0 77 43.459"><defs><clipPath id="a"><rect width="77" height="43.459" fill="#fff"/></clipPath></defs><g transform="translate(893.273 -22.405)"><g transform="translate(-893.273 22.405)"><g clip-path="url(#a)"><path d="M-893.015,110.7a16.275,16.275,0,0,0-.258,2.884c0,12.014,12.135,25.4,38.5,25.4,27.091,0,38.5-14.07,38.5-25.4a12.744,12.744,0,0,0-.342-2.884h-.027a18.643,18.643,0,0,1,.127,2.884c0,11.328-11.167,22.939-38.258,22.939-26.366,0-38.218-10.925-38.218-22.939,0-.977-.082-1.922,0-2.884Z" transform="translate(893.273 -95.522)" fill="#fff" fill-rule="evenodd"/><path d="M-819.08,28.936c.444-.6.968-.443.806.322a41.73,41.73,0,0,1-4.636,9.958,25.089,25.089,0,0,1,3.83-10.28m33.138,16.529c-.121-.484.645-1.008.2-1.411l-1.29.968a1.527,1.527,0,0,1-1.976-.081c-1.854-2.58-1.572-5.966-2.782-6.007-1.653-.081-3.387,2.983-5.684,5.281-.161.161-.282.161-.323-.121a8.16,8.16,0,0,1,.4-2.137c.282-1.411.927-2.62.524-3.91-.282-1.089-1.532-1.33-2.62-.363-1.975,1.572-3.83,3.588-5.886,5.2-.524.242-.726.121-.645-.363.121-.685,1.37-3.467.524-4.233-.887-.766-2.58-.363-3.991,1.25a43.793,43.793,0,0,1-6.571,6.531c-.081.08-.161.04-.121-.081a27.889,27.889,0,0,0,1.895-4.555c.242-.726-.04-1.492-1.411-1.492-.726.04-5.926,1.29-6.249,4.918.04,1.371,2.822.121,2.822.121.363-.161.6,0,.484.4-.6,1.048-3.225,3.588-3.669,3.467-.726-.322-1.008-5.4-.4-6.45,2.419-3.789,5.563-9.071,6.773-11.57,2.3-4.918,1.734-8.426,0-8.426-2.9,0-4.918,1.854-8.063,10.6-2.217,6.128-1.854,7.1-2.419,10.6-.927,1.209-2.1,1.975-3.306,1.734-1.169-.4-1.048-1.572-.887-2.54.2-1.008.081-1.048-.282-1.451-.323-.4-.806-.766-1.33-.363l-7.74,5.765c-.4.242-.6.121-.6-.2.564-2.943,3.306-6.289,6.571-8.466,2.782-1.411,1.814,1.532,2.5,1.774,1.492.6,3.265-4.314.564-4.475a9.88,9.88,0,0,0-7.136,2.338,31.818,31.818,0,0,1-5.926,2.338c-.282.161-.323.564-.081.968.282.443.887.363,1.21.564a.756.756,0,0,1,.04,1.048c-.726,1.33-4.112,4.878-1.25,7.055,2.661,2.056,7.458-2.822,9.192-4.515.484-.443.766-.4.887.121.081.806.645,3.265,2.258,3.427s3.386-.927,4.636-2.258c.322-.4.443-.363.443.081a11.351,11.351,0,0,0,.927,4.676c.6,1.169,1.693,1.532,3.225,1.089a12.819,12.819,0,0,0,5.12-4.273.636.636,0,0,1,.322-.2,22.168,22.168,0,0,0,7.1-4.314c.242-.242-.242,1.612-.484,2.338-.2.726-1.451,3.427-.685,3.83,1.008.524,2.459-1.008,3.628-1.935.484-.363,3.346-2.741,5.4-4.757.282-.363.685-.6,1.008-.323.363.282.121,1.129-.161,1.693-.766,1.653-2.217,5.765-1.089,6.249,1.33.564,7.055-5.362,7.861-6.168.806-.766,1.532-.6,2.016.081s.887,3.386,3.266,3.588a3.885,3.885,0,0,0,3.225-.927C-785.257,46.634-785.5,46.11-785.942,45.465Z" transform="translate(853.468 -22.405)" fill="#fff" fill-rule="evenodd"/></g></g></g></svg>