<?xml version="1.0" encoding="UTF-8" standalone="no"?>
<!-- Created with Inkscape (http://www.inkscape.org/) -->

<svg
   xmlns:dc="http://purl.org/dc/elements/1.1/"
   xmlns:cc="http://creativecommons.org/ns#"
   xmlns:rdf="http://www.w3.org/1999/02/22-rdf-syntax-ns#"
   xmlns:svg="http://www.w3.org/2000/svg"
   xmlns="http://www.w3.org/2000/svg"
   xmlns:sodipodi="http://sodipodi.sourceforge.net/DTD/sodipodi-0.dtd"
   xmlns:inkscape="http://www.inkscape.org/namespaces/inkscape"
   width="98.101807mm"
   height="98.101807mm"
   viewBox="0 0 98.101806 98.101806"
   version="1.1"
   id="svg8"
   inkscape:version="0.92.3 (2405546, 2018-03-11)"
   sodipodi:docname="czyzyk.svg">
  <defs
     id="defs2" />
  <sodipodi:namedview
     id="base"
     pagecolor="#ffffff"
     bordercolor="#666666"
     borderopacity="1.0"
     inkscape:pageopacity="0.0"
     inkscape:pageshadow="2"
     inkscape:zoom="1.979899"
     inkscape:cx="186.18714"
     inkscape:cy="157.20933"
     inkscape:document-units="mm"
     inkscape:current-layer="layer1"
     showgrid="false"
     inkscape:window-width="3840"
     inkscape:window-height="2066"
     inkscape:window-x="-11"
     inkscape:window-y="-11"
     inkscape:window-maximized="1" />
  <metadata
     id="metadata5">
    <rdf:RDF>
      <cc:Work
         rdf:about="">
        <dc:format>image/svg+xml</dc:format>
        <dc:type
           rdf:resource="http://purl.org/dc/dcmitype/StillImage" />
        <dc:title />
      </cc:Work>
    </rdf:RDF>
  </metadata>
  <g
     inkscape:label="Layer 1"
     inkscape:groupmode="layer"
     id="layer1"
     transform="translate(472.54411,26.229008)">
    <g
       id="g866"
       transform="matrix(0.70368044,0,0,0.70368044,-122.25052,-7.0257282)"
       style="fill:none;stroke:#000000;stroke-width:0.49554828;stroke-miterlimit:4;stroke-dasharray:none;stroke-opacity:1">
      <path
         style="fill:none;stroke:#000000;stroke-width:0.49554828;stroke-miterlimit:4;stroke-dasharray:none;stroke-opacity:1"
         inkscape:connector-curvature="0"
         id="path4546"
         d="m -435.93557,17.989733 c 0,0 6.18289,3.620614 14.12039,3.537061 7.9375,-0.08355 12.4181,-3.485054 12.4181,-3.485054 0,0 11.56151,-8.0730619 9.8069,-19.1577091 -1.75461,-11.0846499 -12.00373,-8.6059221 -12.00373,-8.6059221 0,0 -7.35263,1.0304833 -6.82346,10.33267494 0.52916,9.30219426 -9.58071,16.09780826 -32.97544,16.73837726 3.48136,-1.364691 32.97544,-16.65482449 32.97544,-16.65482449"
         class="draw body" />
      <path
         style="fill:none;stroke:#000000;stroke-width:0.49554828;stroke-miterlimit:4;stroke-dasharray:none;stroke-opacity:1"
         inkscape:connector-curvature="0"
         id="path4557"
         d="m -451.39281,17.349161 -6.04364,2.896492 c 0,0 18.66009,2.812939 27.37741,-6.210747"
         class="draw" />
      <path
         style="fill:none;stroke:#000000;stroke-width:0.49554828;stroke-miterlimit:4;stroke-dasharray:none;stroke-opacity:1"
         sodipodi:nodetypes="ccc"
         inkscape:connector-curvature="0"
         id="path4559"
         d="m -432.19659,19.653822 6.25948,8.557181 -6.37785,-0.02785"
         class="draw left_leg" />
      <path
         style="fill:none;stroke:#000000;stroke-width:0.49554828;stroke-miterlimit:4;stroke-dasharray:none;stroke-opacity:1"
         inkscape:connector-curvature="0"
         id="path4563"
         d="m -423.85505,21.446329 6.66311,7.126738"
         class="draw rigth_leg" />
      <path
         style="fill:none;stroke:#000000;stroke-width:0.49554828;stroke-miterlimit:4;stroke-dasharray:none;stroke-opacity:1"
         inkscape:connector-curvature="0"
         id="path4565"
         d="m -403.79566,-8.4686023 5.15241,-1.5874997 -2.39518,4.5675441"
         class="draw peak" />
      <path
         style="fill:none;stroke:#000000;stroke-width:0.49554828;stroke-miterlimit:4;stroke-dasharray:none;stroke-opacity:1"
         inkscape:connector-curvature="0"
         id="path4561"
         d="m -411.84457,28.795872 -14.09254,-0.584869 7.57544,2.228072"
         class="draw pawns" />
      <ellipse
         style="fill:none;stroke:#000000;stroke-width:0.49554828;stroke-miterlimit:4;stroke-dasharray:none;stroke-opacity:1"
         ry="1.4900219"
         rx="1.5178728"
         cy="-5.6138868"
         cx="-407.29095"
         id="path4548"
         class="draw eye" />
    </g>
    <rect
       style="opacity:1;fill:none;fill-opacity:1;stroke:#000000;stroke-width:0.5;stroke-miterlimit:4;stroke-dasharray:none;stroke-opacity:1"
       id="rect847"
       width="86.328056"
       height="86.328056"
       x="-466.65726"
       y="-20.342133" />
    <rect
       style="opacity:1;fill:none;fill-opacity:1;stroke:#000000;stroke-width:0.45761147;stroke-miterlimit:4;stroke-dasharray:none;stroke-opacity:1"
       id="rect849"
       width="97.644196"
       height="97.644196"
       x="-472.31531"
       y="-26.000202" />
    <g
       aria-label="Czyżyk
Ciastki 
&amp; Co"
       style="font-style:normal;font-weight:normal;font-size:12.68240929px;line-height:1.25;font-family:sans-serif;letter-spacing:0px;word-spacing:0px;fill:#000000;fill-opacity:1;stroke:none;stroke-width:0.31706023"
       id="text853">
      <path
         d="m -439.40694,21.232383 c -1.03996,-0.646803 -1.877,-0.913133 -2.89159,-0.913133 -2.87891,0 -4.85736,2.105279 -4.85736,5.174423 0,2.955001 1.85163,4.84468 4.71785,4.84468 1.25556,0 2.32088,-0.36779 3.22133,-1.128735 l 0.2917,1.001911 h 0.44388 v -3.15792 h -0.51998 c -0.45656,1.712125 -1.53457,2.599894 -3.14523,2.599894 -2.13065,0 -3.31011,-1.521889 -3.31011,-4.235925 0,-2.764765 1.21751,-4.438843 3.27206,-4.438843 1.49652,0 2.63794,0.913133 3.00573,2.384293 h 0.46925 l -0.11414,-2.916954 h -0.35511 z"
         style="font-style:normal;font-variant:normal;font-weight:normal;font-stretch:normal;font-family:'Libre Baskerville';-inkscape-font-specification:'Libre Baskerville';text-align:center;text-anchor:middle;stroke-width:0.31706023"
         id="path853" />
      <path
         d="m -431.20479,28.245755 h -0.41852 c -0.30438,1.166782 -0.73558,1.382383 -2.47307,1.382383 h -1.48384 l 4.3247,-6.087557 v -0.05073 h -5.45344 l -0.20292,1.750172 h 0.40584 c 0.17755,-1.039957 0.53266,-1.217511 1.97846,-1.217511 h 1.40774 l -4.38811,6.138286 v 0.05073 h 6.08756 z"
         style="font-style:normal;font-variant:normal;font-weight:normal;font-stretch:normal;font-family:'Libre Baskerville';-inkscape-font-specification:'Libre Baskerville';text-align:center;text-anchor:middle;stroke-width:0.31706023"
         id="path855" />
      <path
         d="m -424.34817,26.051699 c 0.82436,-1.889679 1.00191,-2.117963 1.63603,-2.117963 v -0.443884 h -2.79013 v 0.443884 c 0.69754,0 0.88777,0.114142 0.88777,0.558026 0,0.279013 -0.0761,0.519979 -0.53266,1.623349 l -1.1541,2.853542 h -0.0634 l -1.39506,-3.373521 c -0.20292,-0.494614 -0.35511,-1.027275 -0.35511,-1.242876 0,-0.291696 0.26633,-0.41852 0.84972,-0.41852 v -0.443884 h -3.36084 v 0.443884 c 0.67217,0.05073 0.82436,0.190236 1.25556,1.128735 l 2.43502,5.288564 -0.44388,0.887769 c -0.31706,0.63412 -0.60876,0.849721 -1.30629,0.963863 -0.79899,0.126824 -1.03996,0.291695 -1.03996,0.710215 0,0.405837 0.26633,0.596073 0.79899,0.596073 0.799,0 1.43312,-0.456567 1.81359,-1.306288 z"
         style="font-style:normal;font-variant:normal;font-weight:normal;font-stretch:normal;font-family:'Libre Baskerville';-inkscape-font-specification:'Libre Baskerville';text-align:center;text-anchor:middle;stroke-width:0.31706023"
         id="path857" />
      <path
         d="m -416.04535,28.245755 h -0.41852 c -0.30438,1.166782 -0.73558,1.382383 -2.47307,1.382383 h -1.48384 l 4.3247,-6.087557 v -0.05073 h -5.45344 l -0.20291,1.750172 h 0.40583 c 0.17756,-1.039957 0.53266,-1.217511 1.97846,-1.217511 h 1.40775 l -4.38812,6.138286 v 0.05073 h 6.08756 z m -3.6779,-7.457256 c 0,0.443884 0.34243,0.786309 0.78631,0.786309 0.44388,0 0.78631,-0.342425 0.78631,-0.786309 0,-0.443885 -0.34243,-0.78631 -0.78631,-0.78631 -0.44388,0 -0.78631,0.342425 -0.78631,0.78631 z"
         style="font-style:normal;font-variant:normal;font-weight:normal;font-stretch:normal;font-family:'Libre Baskerville';-inkscape-font-specification:'Libre Baskerville';text-align:center;text-anchor:middle;stroke-width:0.31706023"
         id="path859" />
      <path
         d="m -409.18872,26.051699 c 0.82435,-1.889679 1.00191,-2.117963 1.63603,-2.117963 v -0.443884 h -2.79013 v 0.443884 c 0.69753,0 0.88777,0.114142 0.88777,0.558026 0,0.279013 -0.0761,0.519979 -0.53267,1.623349 l -1.15409,2.853542 h -0.0634 l -1.39506,-3.373521 c -0.20292,-0.494614 -0.35511,-1.027275 -0.35511,-1.242876 0,-0.291696 0.26633,-0.41852 0.84972,-0.41852 v -0.443884 h -3.36084 v 0.443884 c 0.67217,0.05073 0.82436,0.190236 1.25556,1.128735 l 2.43502,5.288564 -0.44388,0.887769 c -0.31706,0.63412 -0.60876,0.849721 -1.30629,0.963863 -0.79899,0.126824 -1.03996,0.291695 -1.03996,0.710215 0,0.405837 0.26634,0.596073 0.799,0.596073 0.79899,0 1.43311,-0.456567 1.81358,-1.306288 z"
         style="font-style:normal;font-variant:normal;font-weight:normal;font-stretch:normal;font-family:'Libre Baskerville';-inkscape-font-specification:'Libre Baskerville';text-align:center;text-anchor:middle;stroke-width:0.31706023"
         id="path861" />
      <path
         d="m -403.10295,30.211529 h 3.33547 v -0.443885 c -0.6468,0 -0.8624,-0.139506 -1.34433,-0.697532 l -2.51112,-2.84086 1.82627,-1.623348 c 0.62144,-0.545344 0.8624,-0.672168 1.49652,-0.672168 v -0.443884 h -3.29743 v 0.443884 c 0.65949,0 1.02728,0.126824 1.02728,0.304378 0,0.177554 -0.36779,0.507296 -1.12873,1.255559 l -1.17947,1.154099 v -6.962643 l -2.4477,0.481932 v 0.431202 c 0.59607,0 0.93849,0 1.09068,0.240965 0.15219,0.228284 0.15219,0.849722 0.15219,2.130645 v 5.31393 c 0,1.204828 -0.20292,1.445794 -1.21751,1.483841 v 0.443885 h 3.60181 v -0.443885 c -1.0146,-0.03805 -1.17947,-0.26633 -1.17947,-1.572618 v -0.748262 l 0.46925,-0.443885 1.34434,1.623349 c 0.40583,0.494614 0.68485,0.875086 0.69753,1.00191 0,0.08878 -0.17756,0.139506 -0.73558,0.139506 z"
         style="font-style:normal;font-variant:normal;font-weight:normal;font-stretch:normal;font-family:'Libre Baskerville';-inkscape-font-specification:'Libre Baskerville';text-align:center;text-anchor:middle;stroke-width:0.31706023"
         id="path863" />
      <path
         d="m -437.42532,37.149723 c -1.03995,-0.646803 -1.87699,-0.913133 -2.89159,-0.913133 -2.8789,0 -4.85736,2.105279 -4.85736,5.174423 0,2.955001 1.85163,4.84468 4.71786,4.84468 1.25556,0 2.32088,-0.36779 3.22133,-1.128735 l 0.2917,1.001911 h 0.44388 v -3.15792 h -0.51998 c -0.45657,1.712125 -1.53457,2.599894 -3.14524,2.599894 -2.13064,0 -3.31011,-1.521889 -3.31011,-4.235925 0,-2.764765 1.21752,-4.438843 3.27207,-4.438843 1.49652,0 2.63794,0.913133 3.00573,2.384293 h 0.46925 l -0.11415,-2.916954 h -0.3551 z"
         style="font-style:normal;font-variant:normal;font-weight:normal;font-stretch:normal;font-family:'Libre Baskerville';-inkscape-font-specification:'Libre Baskerville';text-align:center;text-anchor:middle;stroke-width:0.31706023"
         id="path865" />
      <path
         d="m -432.86302,39.280368 -2.48575,0.481931 v 0.443885 c 0.83704,0 1.078,0.114141 1.1541,0.507296 0.0634,0.228283 0.0888,0.887769 0.0888,1.864314 v 1.623349 c 0,1.192146 -0.19024,1.433112 -1.21752,1.483841 v 0.443885 h 3.63986 v -0.443885 c -1.00191,-0.03805 -1.17947,-0.26633 -1.17947,-1.572618 z m -1.45847,-2.574529 c 0,0.443884 0.34242,0.786309 0.7863,0.786309 0.44389,0 0.78631,-0.342425 0.78631,-0.786309 0,-0.443885 -0.34242,-0.78631 -0.78631,-0.78631 -0.44388,0 -0.7863,0.342425 -0.7863,0.78631 z"
         style="font-style:normal;font-variant:normal;font-weight:normal;font-stretch:normal;font-family:'Libre Baskerville';-inkscape-font-specification:'Libre Baskerville';text-align:center;text-anchor:middle;stroke-width:0.31706023"
         id="path867" />
      <path
         d="m -426.99364,43.376786 c 0,1.154099 -0.71021,2.10528 -1.5853,2.10528 -0.60876,0 -1.01459,-0.393155 -1.01459,-0.951181 0,-0.748262 0.65948,-1.42043 2.59989,-2.156009 z m -1.82627,-0.748262 c -1.53457,0.659485 -2.05455,1.306288 -2.05455,2.117962 0,0.900451 0.65949,1.496524 1.71213,1.496524 0.9385,0 1.76285,-0.519978 2.20674,-1.344335 h 0.0634 c 0,0.862404 0.36779,1.357018 1.10337,1.357018 0.59607,0 1.20483,-0.291696 1.40775,-0.68485 l -0.17756,-0.304378 c -0.15219,0.253648 -0.39315,0.279013 -0.62143,0.279013 -0.38048,0 -0.57071,-0.469249 -0.57071,-1.445795 v -2.840859 c 0,-1.445795 -0.63412,-1.978456 -2.33357,-1.978456 -1.5853,0 -2.48575,0.469249 -2.48575,1.280923 0,0.405837 0.22829,0.634121 0.63412,0.634121 0.32974,0 0.46925,-0.126825 0.65949,-0.608756 0.2156,-0.659485 0.38047,-0.824357 0.96386,-0.824357 0.90045,0 1.31897,0.494614 1.31897,1.547254 v 0.519979 z"
         style="font-style:normal;font-variant:normal;font-weight:normal;font-stretch:normal;font-family:'Libre Baskerville';-inkscape-font-specification:'Libre Baskerville';text-align:center;text-anchor:middle;stroke-width:0.31706023"
         id="path869" />
      <path
         d="m -423.04069,45.684984 c 0.45657,0.36779 1.03996,0.570709 1.69944,0.570709 1.25556,0 2.11797,-0.73558 2.11797,-1.927726 0,-0.963863 -0.57071,-1.395065 -2.02919,-2.308199 -0.8624,-0.532661 -1.24288,-0.798992 -1.24288,-1.357018 0,-0.545343 0.38048,-0.862403 0.95118,-0.862403 0.64681,0 1.05264,0.405837 1.42043,1.433112 h 0.32975 v -1.826267 h -0.24097 l -0.25365,0.26633 c -0.36779,-0.240965 -0.90045,-0.393154 -1.35701,-0.393154 -1.06533,0 -1.88968,0.798992 -1.88968,1.953091 0,0.95118 0.57071,1.357018 1.71212,2.079915 1.24288,0.773627 1.47116,0.925816 1.47116,1.42043 0,0.672167 -0.4312,1.00191 -1.10337,1.00191 -0.88777,0 -1.47116,-0.583391 -1.8009,-1.78822 h -0.31706 v 2.181375 h 0.27901 z"
         style="font-style:normal;font-variant:normal;font-weight:normal;font-stretch:normal;font-family:'Libre Baskerville';-inkscape-font-specification:'Libre Baskerville';text-align:center;text-anchor:middle;stroke-width:0.31706023"
         id="path871" />
      <path
         d="m -417.37007,40.206184 v 4.502255 c 0,0.989228 0.59607,1.547254 1.71213,1.547254 0.8624,0 1.45847,-0.342425 1.69944,-0.963863 l -0.31706,-0.240966 c -0.27901,0.418519 -0.55803,0.583391 -0.97655,0.583391 -0.67216,0 -0.87508,-0.380472 -0.87508,-1.572619 v -3.855452 h 1.69944 V 39.61011 h -1.69944 v -1.597983 h -0.36779 c -0.26633,0.722897 -0.73558,1.192146 -1.63603,1.724807 v 0.46925 z"
         style="font-style:normal;font-variant:normal;font-weight:normal;font-stretch:normal;font-family:'Libre Baskerville';-inkscape-font-specification:'Libre Baskerville';text-align:center;text-anchor:middle;stroke-width:0.31706023"
         id="path873" />
      <path
         d="m -409.41939,46.128869 h 3.33548 v -0.443885 c -0.64681,0 -0.86241,-0.139506 -1.34434,-0.697532 l -2.51111,-2.84086 1.82626,-1.623348 c 0.62144,-0.545344 0.86241,-0.672168 1.49653,-0.672168 v -0.443884 h -3.29743 v 0.443884 c 0.65949,0 1.02728,0.126824 1.02728,0.304378 0,0.177554 -0.36779,0.507296 -1.12874,1.255559 l -1.17946,1.154099 v -6.962643 l -2.44771,0.481932 v 0.431202 c 0.59607,0 0.9385,0 1.09069,0.240965 0.15219,0.228284 0.15219,0.849722 0.15219,2.130645 v 5.31393 c 0,1.204828 -0.20292,1.445794 -1.21751,1.483841 v 0.443885 h 3.6018 v -0.443885 c -1.01459,-0.03805 -1.17946,-0.26633 -1.17946,-1.572618 v -0.748262 l 0.46925,-0.443885 1.34433,1.623349 c 0.40584,0.494614 0.68485,0.875086 0.69753,1.00191 0,0.08878 -0.17755,0.139506 -0.73558,0.139506 z"
         style="font-style:normal;font-variant:normal;font-weight:normal;font-stretch:normal;font-family:'Libre Baskerville';-inkscape-font-specification:'Libre Baskerville';text-align:center;text-anchor:middle;stroke-width:0.31706023"
         id="path875" />
      <path
         d="m -403.13862,39.280368 -2.48575,0.481931 v 0.443885 c 0.83704,0 1.078,0.114141 1.1541,0.507296 0.0634,0.228283 0.0888,0.887769 0.0888,1.864314 v 1.623349 c 0,1.192146 -0.19023,1.433112 -1.21751,1.483841 v 0.443885 h 3.63985 v -0.443885 c -1.00191,-0.03805 -1.17946,-0.26633 -1.17946,-1.572618 z m -1.45848,-2.574529 c 0,0.443884 0.34243,0.786309 0.78631,0.786309 0.44389,0 0.78631,-0.342425 0.78631,-0.786309 0,-0.443885 -0.34242,-0.78631 -0.78631,-0.78631 -0.44388,0 -0.78631,0.342425 -0.78631,0.78631 z"
         style="font-style:normal;font-variant:normal;font-weight:normal;font-stretch:normal;font-family:'Libre Baskerville';-inkscape-font-specification:'Libre Baskerville';text-align:center;text-anchor:middle;stroke-width:0.31706023"
         id="path877" />
      <path
         d="m -436.04779,56.237665 c -0.41852,-0.596073 -0.6468,-1.293605 -0.6468,-2.029185 0,-0.837039 0.29169,-1.280924 0.83704,-1.280924 0.59607,0 0.97654,0.507297 0.97654,1.293606 0,0.760945 -0.36779,1.395065 -1.16678,2.016503 z m 1.49653,4.121783 c -0.7229,0.634121 -1.59799,1.014593 -2.29552,1.014593 -0.9385,0 -1.61067,-0.672168 -1.61067,-1.597984 0,-0.875086 0.62144,-1.73749 1.68676,-2.346245 z m -1.14142,-3.639851 c 1.40775,-0.963863 1.99114,-1.73749 1.99114,-2.675989 0,-1.103369 -0.82436,-1.889678 -1.97846,-1.889678 -1.30629,0 -2.20674,1.027275 -2.20674,2.511117 0,0.760944 0.22829,1.420429 0.77363,2.206739 -2.00382,0.976545 -2.87891,1.915044 -2.87891,3.05646 0,1.293606 1.12874,2.244787 2.67599,2.244787 1.14142,0 2.32088,-0.519979 3.15792,-1.395065 1.05264,1.039957 1.68676,1.395065 2.5238,1.395065 1.02727,0 1.69944,-0.519979 1.877,-1.458477 l -0.31706,-0.08878 c -0.27902,0.570708 -0.48194,0.722897 -0.92582,0.722897 -0.76094,0 -1.54725,-0.507296 -2.25747,-1.471159 l 1.8009,-2.637941 c 0.35511,-0.532662 0.63412,-0.672168 1.3697,-0.672168 v -0.443884 h -2.91695 v 0.443884 c 0.54534,0 0.77363,0.114142 0.77363,0.380472 0,0.443885 -0.58339,1.445795 -1.40775,2.447705 z"
         style="font-style:normal;font-variant:normal;font-weight:normal;font-stretch:normal;font-family:'Libre Baskerville';-inkscape-font-specification:'Libre Baskerville';text-align:center;text-anchor:middle;stroke-width:0.31706023"
         id="path879" />
      <path
         d="m -417.1508,53.067063 c -1.03996,-0.646803 -1.877,-0.913133 -2.89159,-0.913133 -2.87891,0 -4.85736,2.105279 -4.85736,5.174422 0,2.955002 1.85163,4.844681 4.71785,4.844681 1.25556,0 2.32088,-0.36779 3.22134,-1.128735 l 0.29169,1.001911 h 0.44389 v -3.15792 h -0.51998 c -0.45657,1.712125 -1.53457,2.599894 -3.14524,2.599894 -2.13065,0 -3.31011,-1.521889 -3.31011,-4.235925 0,-2.764765 1.21751,-4.438843 3.27206,-4.438843 1.49653,0 2.63794,0.913133 3.00573,2.384293 h 0.46925 l -0.11414,-2.916954 h -0.35511 z"
         style="font-style:normal;font-variant:normal;font-weight:normal;font-stretch:normal;font-family:'Libre Baskerville';-inkscape-font-specification:'Libre Baskerville';text-align:center;text-anchor:middle;stroke-width:0.31706023"
         id="path881" />
      <path
         d="m -411.35831,55.197708 c -1.90236,0 -3.51303,1.433112 -3.51303,3.436933 0,2.067232 1.61067,3.538392 3.51303,3.538392 1.92773,0 3.56376,-1.483842 3.56376,-3.538392 0,-1.991139 -1.63603,-3.436933 -3.56376,-3.436933 z m 0,0.608755 c 1.28092,0 2.13065,1.1541 2.13065,2.84086 0,1.73749 -0.83704,2.878907 -2.13065,2.878907 -1.26824,0 -2.07991,-1.128734 -2.07991,-2.878907 0,-1.699443 0.82435,-2.84086 2.07991,-2.84086 z"
         style="font-style:normal;font-variant:normal;font-weight:normal;font-stretch:normal;font-family:'Libre Baskerville';-inkscape-font-specification:'Libre Baskerville';text-align:center;text-anchor:middle;stroke-width:0.31706023"
         id="path883" />
    </g>
  </g>
</svg>
