<?xml version="1.0" encoding="UTF-8" standalone="no"?>
<!-- Generator: Adobe Illustrator 22.1.0, SVG Export Plug-In . SVG Version: 6.00 Build 0)  -->

<svg
   xmlns:dc="http://purl.org/dc/elements/1.1/"
   xmlns:cc="http://creativecommons.org/ns#"
   xmlns:rdf="http://www.w3.org/1999/02/22-rdf-syntax-ns#"
   xmlns:svg="http://www.w3.org/2000/svg"
   xmlns="http://www.w3.org/2000/svg"
   xmlns:sodipodi="http://sodipodi.sourceforge.net/DTD/sodipodi-0.dtd"
   xmlns:inkscape="http://www.inkscape.org/namespaces/inkscape"
   version="1.1"
   id="Warstwa_1"
   x="0px"
   y="0px"
   viewBox="0 0 3542.6002 3032.2"
   xml:space="preserve"
   sodipodi:docname="logo_white.svg"
   width="3542.6001"
   height="3032.2"
   inkscape:version="0.92.3 (2405546, 2018-03-11)"><metadata
   id="metadata45"><rdf:RDF><cc:Work
       rdf:about=""><dc:format>image/svg+xml</dc:format><dc:type
         rdf:resource="http://purl.org/dc/dcmitype/StillImage" /></cc:Work></rdf:RDF></metadata><defs
   id="defs43" /><sodipodi:namedview
   pagecolor="#ffffff"
   bordercolor="#666666"
   borderopacity="1"
   objecttolerance="10"
   gridtolerance="10"
   guidetolerance="10"
   inkscape:pageopacity="0"
   inkscape:pageshadow="2"
   inkscape:window-width="3840"
   inkscape:window-height="2066"
   id="namedview41"
   showgrid="false"
   inkscape:zoom="0.030721567"
   inkscape:cx="-2125.0248"
   inkscape:cy="-208.34995"
   inkscape:window-x="-11"
   inkscape:window-y="-11"
   inkscape:window-maximized="1"
   inkscape:current-layer="Warstwa_1" />
<style
   type="text/css"
   id="style2">
	.st0{fill:#FFFFFF;}
</style>
<g
   id="g38"
   transform="translate(-1135,-600.4)">
	<g
   id="g16">
		<path
   class="st0"
   d="m 2037.8,3510.6 c 8.2,3.7 14.6,9 19,15.8 4.5,6.8 6.7,14.9 6.7,24.2 0,9.2 -2.2,17.2 -6.7,24.1 -4.5,6.9 -10.8,12.1 -19,15.8 -8.2,3.6 -18,5.5 -29.2,5.5 h -25.5 v 34.6 h -29.2 V 3505 h 54.7 c 11.2,0 21,1.9 29.2,5.6 z m -10.7,56 c 4.6,-3.8 6.9,-9.1 6.9,-16 0,-7 -2.3,-12.5 -6.9,-16.2 -4.6,-3.8 -11.3,-5.6 -20,-5.6 h -23.8 v 43.5 h 23.8 c 8.7,-0.1 15.4,-1.9 20,-5.7 z"
   id="path4"
   inkscape:connector-curvature="0"
   style="fill:#ffffff" />
		<path
   class="st0"
   d="m 2301.4,3624.2 c -10.5,-5.6 -18.8,-13.4 -24.7,-23.2 -6,-9.9 -8.9,-20.9 -8.9,-33.2 0,-12.3 3,-23.4 8.9,-33.2 6,-9.9 14.2,-17.6 24.7,-23.2 10.5,-5.6 22.4,-8.4 35.5,-8.4 13.1,0 24.9,2.8 35.4,8.4 10.5,5.6 18.7,13.4 24.7,23.2 6,9.9 9,20.9 9,33.2 0,12.3 -3,23.4 -9,33.2 -6,9.9 -14.3,17.6 -24.7,23.2 -10.5,5.6 -22.3,8.4 -35.4,8.4 -13.2,0 -25,-2.8 -35.5,-8.4 z m 55.7,-21.4 c 6,-3.4 10.7,-8.2 14.2,-14.2 3.4,-6.1 5.1,-13 5.1,-20.8 0,-7.8 -1.7,-14.7 -5.1,-20.8 -3.4,-6.1 -8.2,-10.8 -14.2,-14.2 -6,-3.4 -12.8,-5.1 -20.2,-5.1 -7.5,0 -14.2,1.7 -20.2,5.1 -6,3.4 -10.7,8.2 -14.2,14.2 -3.4,6.1 -5.1,13 -5.1,20.8 0,7.8 1.7,14.7 5.1,20.8 3.4,6.1 8.2,10.8 14.2,14.2 6,3.4 12.8,5.1 20.2,5.1 7.4,0 14.1,-1.7 20.2,-5.1 z"
   id="path6"
   inkscape:connector-curvature="0"
   style="fill:#ffffff" />
		<path
   class="st0"
   d="m 2617.6,3505 h 29.2 v 101.8 h 63.4 v 23.7 h -92.6 z"
   id="path8"
   inkscape:connector-curvature="0"
   style="fill:#ffffff" />
		<path
   class="st0"
   d="m 3000.5,3603.6 h -58.7 l -11.2,26.9 h -30 L 2957,3505 h 28.9 l 56.5,125.4 h -30.7 z m -9.2,-22 -20,-48 -20,48 z"
   id="path10"
   inkscape:connector-curvature="0"
   style="fill:#ffffff" />
		<path
   class="st0"
   d="m 3361,3505 v 125.4 h -24 l -63,-76.2 v 76.2 h -28.9 V 3505 h 24.2 l 62.8,76.2 V 3505 Z"
   id="path12"
   inkscape:connector-curvature="0"
   style="fill:#ffffff" />
		<path
   class="st0"
   d="m 3580.5,3505 h 57.4 c 13.7,0 25.8,2.6 36.4,7.8 10.5,5.2 18.7,12.5 24.6,22 5.8,9.4 8.8,20.4 8.8,33 0,12.5 -2.9,23.5 -8.8,33 -5.8,9.4 -14,16.8 -24.6,22 -10.5,5.2 -22.7,7.8 -36.4,7.8 h -57.4 z m 56,101.6 c 12.6,0 22.7,-3.5 30.2,-10.5 7.5,-7 11.3,-16.5 11.3,-28.4 0,-11.9 -3.8,-21.4 -11.3,-28.4 -7.5,-7 -17.6,-10.5 -30.2,-10.5 h -26.7 v 77.8 z"
   id="path14"
   inkscape:connector-curvature="0"
   style="fill:#ffffff" />
	</g>
	<path
   class="st0"
   d="m 3700.9,1448 -1.6,-14.5 h -1356 c 15.8,-255.5 224,-453.4 480.3,-453.4 180.2,0 344,100.3 427.4,261.7 l 4.2,8.1 h 86.6 l -9.7,-21.1 C 3240.6,1029.9 3041,901.4 2823.6,901.4 c -295.1,0 -542.9,237.3 -559,532 h -224.1 c 16.5,-417.3 367.8,-754.3 790.2,-754.3 346.3,0 657.8,230.1 757.6,559.6 l 3.2,10.6 h 82.1 l -5.4,-19 C 3562.9,859.4 3218.5,600.4 2830.7,600.4 c -479.9,0 -870.3,387.5 -870.3,863.8 0,10.4 0.4,20.6 0.8,30.9 l 0.6,16 h 303.8 c 23.9,290.5 266.4,516 558,516 214.3,0 412.8,-125.9 505.5,-320.8 l 10.1,-21.3 H 3252 l -4.2,7.9 c -84.3,157.6 -246.9,255.5 -424.2,255.5 -248,0 -455.5,-190.9 -479.1,-437.4 h 1275.6 c -24.6,415.3 -368.4,738.3 -789.5,738.3 -349.1,0 -652.9,-222.6 -756,-553.9 l -3.3,-10.5 h -82.2 l 5.6,19.1 c 107.2,367.4 450.9,624 835.9,624 479.8,0 870.2,-387.5 870.2,-863.8 l 0.1,-6.4 c 0.1,-2.5 0.1,-4.2 0,-9.8 z"
   id="path18"
   inkscape:connector-curvature="0"
   style="fill:#ffffff" />
	<g
   id="g32">
		<path
   class="st0"
   d="m 1415.7,2740.6 c -162.7,0 -280.7,123.8 -280.7,294.5 0,173.4 123.7,294.5 300.9,294.5 90.4,0 170.9,-34.7 221,-95.1 l 8.1,-9.8 -51,-57.6 -11.2,13.6 c -37.9,46.1 -96.8,71.5 -165.8,71.5 -121.1,0 -207.2,-75.5 -218.7,-189.5 h 476 v -14.9 c 0,-2.2 0.3,-4.5 0.5,-6.6 0.3,-2.9 0.6,-5.7 0.6,-8.1 -0.1,-169.5 -117.7,-292.5 -279.7,-292.5 z m -195.9,251.1 c 14,-105.2 91,-174.8 195.9,-174.8 104.1,0 182.7,71.1 196,174.8 z"
   id="path20"
   inkscape:connector-curvature="0"
   style="fill:#ffffff" />
		<path
   class="st0"
   d="m 2037,3000.2 c -96.6,-18.2 -155.3,-33.7 -155.3,-94.8 0,-56.2 51.5,-88.4 141.2,-88.4 60.1,0 116.2,16.6 158,46.7 l 13.5,9.8 39.4,-68 -10.6,-7.9 c -45.3,-34 -125.4,-56.8 -199.3,-56.8 -136.9,0 -225.4,65.1 -225.4,165.8 0,128.6 120.1,150.8 216.7,168.7 94,17.4 151,32.1 151,89.7 0,58.7 -50,88.4 -148.6,88.4 -85.2,0 -155.6,-33.9 -190,-62.9 l -13.8,-11.6 -39.4,68.1 8.8,8.1 c 48.5,44.7 141.9,74.7 232.3,74.7 144.3,0 233.9,-63.5 233.9,-165.8 -0.1,-123.8 -112.9,-145.1 -212.4,-163.8 z"
   id="path22"
   inkscape:connector-curvature="0"
   style="fill:#ffffff" />
		<path
   class="st0"
   d="m 2792,3176.1 c -35.9,49.8 -90.9,76.1 -158.9,76.1 -124.4,0 -211.3,-89.3 -211.3,-217.1 0,-127.8 86.9,-217.1 211.3,-217.1 68,0 122.9,26.3 158.9,76.1 l 8.8,12.2 63.3,-45.8 -8.1,-11.9 c -47.1,-69.6 -126.3,-107.9 -222.9,-107.9 -171.3,0 -295.6,123.8 -295.6,294.5 0,170.7 124.3,294.5 295.6,294.5 95.9,0 175,-38.3 222.8,-107.8 l 8.2,-11.9 -63.4,-45.9 z"
   id="path24"
   inkscape:connector-curvature="0"
   style="fill:#ffffff" />
		<path
   class="st0"
   d="m 3448.4,2837.5 c -50.2,-62.2 -124.8,-96.9 -211.3,-96.9 -167.6,0 -289.2,123.8 -289.2,294.5 0,170.7 121.6,294.5 289.2,294.5 87.9,0 162.9,-35 212.4,-97.6 v 93.4 h 82.2 v -580.5 h -83.2 v 92.6 z m 0,197.6 c 0,127.8 -85.6,217.1 -208.1,217.1 -122.5,0 -208.1,-89.3 -208.1,-217.1 0,-127.8 85.6,-217.1 208.1,-217.1 122.5,0 208.1,89.2 208.1,217.1 z"
   id="path26"
   inkscape:connector-curvature="0"
   style="fill:#ffffff" />
		<rect
   x="3680.7"
   y="2512.8"
   class="st0"
   width="83.199997"
   height="812.5"
   id="rect28"
   style="fill:#ffffff" />
		<path
   class="st0"
   d="m 4383,2744.8 v 92.7 c -50.2,-62.2 -124.8,-96.9 -211.3,-96.9 -167.6,0 -289.2,123.8 -289.2,294.5 0,170.7 121.6,294.5 289.2,294.5 87.9,0 162.9,-35 212.4,-97.6 v 93.4 h 82.2 V 2744.9 H 4383 Z m 0,290.3 c 0,127.8 -85.6,217.1 -208.1,217.1 -122.5,0 -208.1,-89.3 -208.1,-217.1 0,-127.8 85.6,-217.1 208.1,-217.1 122.5,-0.1 208.1,89.2 208.1,217.1 z"
   id="path30"
   inkscape:connector-curvature="0"
   style="fill:#ffffff" />
	</g>
	<g
   id="g36">
		<path
   class="st0"
   d="m 4514.7,2636.6 h 66.1 v 8.2 h -28 v 66.1 h -9.9 v -66.1 h -28.2 z m 153.6,74.3 -0.2,-57.3 -30.9,48.2 h -4.5 l -30.9,-47.1 v 56.3 h -9.6 v -74.4 h 8.1 l 34.7,53.8 34.5,-53.8 h 7.9 l 0.2,74.4 h -9.3 z"
   id="path34"
   inkscape:connector-curvature="0"
   style="fill:#ffffff" />
	</g>
</g>
</svg>