<?xml version="1.0" encoding="UTF-8" standalone="no"?>
<!-- Created with Inkscape (http://www.inkscape.org/) -->

<svg
   xmlns:dc="http://purl.org/dc/elements/1.1/"
   xmlns:cc="http://creativecommons.org/ns#"
   xmlns:rdf="http://www.w3.org/1999/02/22-rdf-syntax-ns#"
   xmlns:svg="http://www.w3.org/2000/svg"
   xmlns="http://www.w3.org/2000/svg"
   xmlns:sodipodi="http://sodipodi.sourceforge.net/DTD/sodipodi-0.dtd"
   xmlns:inkscape="http://www.inkscape.org/namespaces/inkscape"
   width="380.737331mm"
   height="70.5141702mm"
   viewBox="0 0 38.737331 7.5141702"
   version="1.1"
   id="svg8"
   inkscape:version="0.92.3 (2405546, 2018-03-11)"
   sodipodi:docname="estilo.svg">
  <defs
     id="defs2" />
  <sodipodi:namedview
     id="base"
     pagecolor="#ffffff"
     bordercolor="#666666"
     borderopacity="1.0"
     inkscape:pageopacity="0.0"
     inkscape:pageshadow="2"
     inkscape:zoom="15.839192"
     inkscape:cx="75.265596"
     inkscape:cy="-1.8090485"
     inkscape:document-units="mm"
     inkscape:current-layer="text817"
     showgrid="false"
     inkscape:window-width="3840"
     inkscape:window-height="2066"
     inkscape:window-x="-11"
     inkscape:window-y="-11"
     inkscape:window-maximized="1" />
  <metadata
     id="metadata5">
    <rdf:RDF>
      <cc:Work
         rdf:about="">
        <dc:format>image/svg+xml</dc:format>
        <dc:type
           rdf:resource="http://purl.org/dc/dcmitype/StillImage" />
        <dc:title />
      </cc:Work>
    </rdf:RDF>
  </metadata>
  <g
     inkscape:label="Layer 1"
     inkscape:groupmode="layer"
     id="layer1"
     transform="translate(442.52849,266.8422)">
    <g
       aria-label="ESTILO"
       style="font-style:normal;font-weight:normal;font-size:10.58333302px;line-height:1.25;font-family:sans-serif;letter-spacing:0px;word-spacing:0px;fill:#000000;fill-opacity:1;stroke:none;stroke-width:0.26458332"
       id="text817">
      <path
         d="m -437.41674,-259.86778 v 0.48683 h -5.11175 v -7.40833 h 4.953 v 0.48683 h -4.41325 v 2.921 h 3.94758 v 0.47625 h -3.94758 v 3.03742 z"
         style="font-style:normal;font-variant:normal;font-weight:normal;font-stretch:normal;font-family:'Montserrat Light';-inkscape-font-specification:'Montserrat Light, ';stroke-width:0.26458332;fill:#ffffff;fill-opacity:1"
         id="path827"
         inkscape:connector-curvature="0" />
      <path
         d="m -433.49115,-259.32803 q -0.81492,0 -1.55575,-0.27517 -0.73025,-0.28575 -1.143,-0.73025 l 0.24342,-0.40217 q 0.39158,0.41275 1.04775,0.67734 0.66675,0.254 1.397,0.254 1.05833,0 1.59808,-0.40217 0.53975,-0.40217 0.53975,-1.04775 0,-0.49742 -0.28575,-0.79375 -0.28575,-0.29633 -0.70908,-0.45508 -0.42334,-0.15875 -1.143,-0.32809 -0.81492,-0.20108 -1.31234,-0.39158 -0.48683,-0.1905 -0.83608,-0.58208 -0.33867,-0.40217 -0.33867,-1.06892 0,-0.53975 0.28575,-0.98425 0.28575,-0.45508 0.86784,-0.71967 0.59266,-0.26458 1.47108,-0.26458 0.61383,0 1.2065,0.17992 0.59267,0.17991 1.02658,0.48683 l -0.20108,0.43392 q -0.4445,-0.30692 -0.98425,-0.46567 -0.52917,-0.15875 -1.04775,-0.15875 -1.02658,0 -1.55575,0.41275 -0.52917,0.41275 -0.52917,1.06892 0,0.49741 0.28575,0.79375 0.28575,0.29633 0.70909,0.45508 0.42333,0.15875 1.15358,0.33867 0.81492,0.20108 1.30175,0.39158 0.48683,0.1905 0.8255,0.58208 0.34925,0.381 0.34925,1.03717 0,0.53975 -0.29633,0.98425 -0.28575,0.4445 -0.889,0.70908 -0.60325,0.26459 -1.48167,0.26459 z"
         style="font-style:normal;font-variant:normal;font-weight:normal;font-stretch:normal;font-family:'Montserrat Light';-inkscape-font-specification:'Montserrat Light, ';stroke-width:0.26458332;fill:#ffffff;fill-opacity:1"
         id="path829"
         inkscape:connector-curvature="0" />
      <path
         d="m -427.67445,-266.30245 h -2.667 v -0.48683 h 5.87375 v 0.48683 h -2.667 v 6.9215 h -0.53975 z"
         style="font-style:normal;font-variant:normal;font-weight:normal;font-stretch:normal;font-family:'Montserrat Light';-inkscape-font-specification:'Montserrat Light, ';stroke-width:0.26458332;fill:#ffffff;fill-opacity:1"
         id="path831"
         inkscape:connector-curvature="0" />
      <path
         d="m -419.90489,-266.78928 h 0.48017 v 7.40833 h -0.48017 z"
         style="font-style:normal;font-variant:normal;font-weight:normal;font-stretch:normal;font-family:'Montserrat Light';-inkscape-font-specification:'Montserrat Light, ';stroke-width:0.2495535;fill:#ffffff;fill-opacity:1"
         id="path833"
         inkscape:connector-curvature="0" />
      <path
         d="m -416.84322,-266.78928 h 0.53975 v 6.9215 h 4.26509 v 0.48683 h -4.80484 z"
         style="font-style:normal;font-variant:normal;font-weight:normal;font-stretch:normal;font-family:'Montserrat Light';-inkscape-font-specification:'Montserrat Light, ';stroke-width:0.26458332;fill:#ffffff;fill-opacity:1"
         id="path835"
         inkscape:connector-curvature="0" />
      <path
         d="m -407.64349,-259.32803 q -1.09008,0 -1.9685,-0.48684 -0.87842,-0.49741 -1.38642,-1.35466 -0.49741,-0.85725 -0.49741,-1.91559 0,-1.05833 0.49741,-1.91558 0.508,-0.85725 1.38642,-1.34408 0.87842,-0.49742 1.9685,-0.49742 1.09008,0 1.9685,0.48683 0.87842,0.48684 1.37583,1.34409 0.508,0.85725 0.508,1.92616 0,1.06892 -0.508,1.92617 -0.49741,0.85725 -1.37583,1.34408 -0.87842,0.48684 -1.9685,0.48684 z m 0,-0.49742 q 0.93133,0 1.68275,-0.42333 0.75142,-0.42334 1.18533,-1.16417 0.43392,-0.75142 0.43392,-1.67217 0,-0.92075 -0.43392,-1.66158 -0.43391,-0.75142 -1.18533,-1.17475 -0.75142,-0.42333 -1.68275,-0.42333 -0.93133,0 -1.69333,0.42333 -0.75142,0.42333 -1.18534,1.17475 -0.43391,0.74083 -0.43391,1.66158 0,0.92075 0.43391,1.67217 0.43392,0.74083 1.18534,1.16417 0.762,0.42333 1.69333,0.42333 z"
         style="font-style:normal;font-variant:normal;font-weight:normal;font-stretch:normal;font-family:'Montserrat Light';-inkscape-font-specification:'Montserrat Light, ';stroke-width:0.26458332;fill:#ffffff;fill-opacity:1"
         id="path837"
         inkscape:connector-curvature="0" />
      <path
         d="m -419.90489,-266.78928 v 0.37271 h -2.21232 v -0.37271 z"
         style="font-style:normal;font-variant:normal;font-weight:normal;font-stretch:normal;font-size:10.58333302px;line-height:1.25;font-family:'Montserrat Light';-inkscape-font-specification:'Montserrat Light, ';letter-spacing:0px;word-spacing:0px;fill:#ffffff;fill-opacity:1;stroke:none;stroke-width:0.12014728"
         id="path833-1"
         inkscape:connector-curvature="0" />
      <path
         inkscape:connector-curvature="0"
         id="path890"
         style="font-style:normal;font-variant:normal;font-weight:normal;font-stretch:normal;font-size:10.58333302px;line-height:1.25;font-family:'Montserrat Light';-inkscape-font-specification:'Montserrat Light, ';letter-spacing:0px;word-spacing:0px;fill:#ffffff;fill-opacity:1;stroke:none;stroke-width:0.12014728"
         d="m -419.90489,-259.75366 v 0.37271 h -2.21232 v -0.37271 z" />
      <path
         inkscape:connector-curvature="0"
         id="path892"
         style="font-style:normal;font-variant:normal;font-weight:normal;font-stretch:normal;font-size:10.58333302px;line-height:1.25;font-family:'Montserrat Light';-inkscape-font-specification:'Montserrat Light, ';letter-spacing:0px;word-spacing:0px;fill:#ffffff;fill-opacity:1;stroke:none;stroke-width:0.12014728"
         d="m -419.90489,-260.75875 v 0.37271 h -2.21232 v -0.37271 z" />
      <path
         d="m -419.90489,-261.76384 v 0.37271 h -2.21232 v -0.37271 z"
         style="font-style:normal;font-variant:normal;font-weight:normal;font-stretch:normal;font-size:10.58333302px;line-height:1.25;font-family:'Montserrat Light';-inkscape-font-specification:'Montserrat Light, ';letter-spacing:0px;word-spacing:0px;fill:#ffffff;fill-opacity:1;stroke:none;stroke-width:0.12014728"
         id="path904"
         inkscape:connector-curvature="0" />
      <path
         inkscape:connector-curvature="0"
         id="path906"
         style="font-style:normal;font-variant:normal;font-weight:normal;font-stretch:normal;font-size:10.58333302px;line-height:1.25;font-family:'Montserrat Light';-inkscape-font-specification:'Montserrat Light, ';letter-spacing:0px;word-spacing:0px;fill:#ffffff;fill-opacity:1;stroke:none;stroke-width:0.12014728"
         d="m -419.90489,-262.76893 v 0.37271 h -2.21232 v -0.37271 z" />
      <path
         d="m -419.90489,-263.77401 v 0.37271 h -2.21232 v -0.37271 z"
         style="font-style:normal;font-variant:normal;font-weight:normal;font-stretch:normal;font-size:10.58333302px;line-height:1.25;font-family:'Montserrat Light';-inkscape-font-specification:'Montserrat Light, ';letter-spacing:0px;word-spacing:0px;fill:#ffffff;fill-opacity:1;stroke:none;stroke-width:0.12014728"
         id="path908"
         inkscape:connector-curvature="0" />
      <path
         inkscape:connector-curvature="0"
         id="path910"
         style="font-style:normal;font-variant:normal;font-weight:normal;font-stretch:normal;font-size:10.58333302px;line-height:1.25;font-family:'Montserrat Light';-inkscape-font-specification:'Montserrat Light, ';letter-spacing:0px;word-spacing:0px;fill:#ffffff;fill-opacity:1;stroke:none;stroke-width:0.12014728"
         d="m -419.90489,-264.7791 v 0.37271 h -2.21232 v -0.37271 z" />
      <path
         d="m -419.90489,-265.78419 v 0.37271 h -2.21232 v -0.37271 z"
         style="font-style:normal;font-variant:normal;font-weight:normal;font-stretch:normal;font-size:10.58333302px;line-height:1.25;font-family:'Montserrat Light';-inkscape-font-specification:'Montserrat Light, ';letter-spacing:0px;word-spacing:0px;fill:#ffffff;fill-opacity:1;stroke:none;stroke-width:0.12014728"
         id="path912"
         inkscape:connector-curvature="0" />
    </g>
    <flowRoot
       xml:space="preserve"
       id="flowRoot819"
       style="font-style:normal;font-weight:normal;font-size:40px;line-height:1.25;font-family:sans-serif;letter-spacing:0px;word-spacing:0px;fill:#000000;fill-opacity:1;stroke:none"
       transform="scale(0.26458333)"><flowRegion
         id="flowRegion821"><rect
           id="rect823"
           width="209.55357"
           height="87.5"
           x="-1693.2142"
           y="-1029.5339" /></flowRegion><flowPara
         id="flowPara825" /></flowRoot>  </g>
</svg>
