<?xml version="1.0" encoding="UTF-8" standalone="no"?>
<!-- Created with Inkscape (http://www.inkscape.org/) -->

<svg
   xmlns:dc="http://purl.org/dc/elements/1.1/"
   xmlns:cc="http://creativecommons.org/ns#"
   xmlns:rdf="http://www.w3.org/1999/02/22-rdf-syntax-ns#"
   xmlns:svg="http://www.w3.org/2000/svg"
   xmlns="http://www.w3.org/2000/svg"
   xmlns:sodipodi="http://sodipodi.sourceforge.net/DTD/sodipodi-0.dtd"
   xmlns:inkscape="http://www.inkscape.org/namespaces/inkscape"
   width="302.6792mm"
   height="141.88695mm"
   viewBox="0 0 302.6792 141.88696"
   version="1.1"
   id="svg8"
   inkscape:version="0.92.3 (2405546, 2018-03-11)"
   sodipodi:docname="face_recognition.svg">
  <defs
     id="defs2" />
  <sodipodi:namedview
     id="base"
     pagecolor="#ffffff"
     bordercolor="#666666"
     borderopacity="1.0"
     inkscape:pageopacity="0.0"
     inkscape:pageshadow="2"
     inkscape:zoom="0.63676758"
     inkscape:cx="585.7478"
     inkscape:cy="-199.36886"
     inkscape:document-units="mm"
     inkscape:current-layer="layer1"
     showgrid="false"
     inkscape:window-width="3840"
     inkscape:window-height="2066"
     inkscape:window-x="-11"
     inkscape:window-y="-11"
     inkscape:window-maximized="1" />
  <metadata
     id="metadata5">
    <rdf:RDF>
      <cc:Work
         rdf:about="">
        <dc:format>image/svg+xml</dc:format>
        <dc:type
           rdf:resource="http://purl.org/dc/dcmitype/StillImage" />
        <dc:title></dc:title>
      </cc:Work>
    </rdf:RDF>
  </metadata>
  <g
     inkscape:label="Layer 1"
     inkscape:groupmode="layer"
     id="layer1"
     transform="translate(46.339603,-37.014752)">
    <g
       id="g964"
       transform="translate(-3.8636339)">
      <g
         transform="matrix(0.26458333,0,0,0.26458333,41.130363,15.694363)"
         id="g821">
	<path
   id="path815"
   d="m 282.427,356.122 h -52.854 c -7.718,0 -13.975,-6.258 -13.975,-13.975 0,-7.717 6.257,-13.975 13.975,-13.975 h 52.854 c 7.717,0 13.975,6.258 13.975,13.975 0,7.717 -6.258,13.975 -13.975,13.975 z"
   style="fill:#11544f"
   inkscape:connector-curvature="0" />

	<path
   id="path817"
   d="M 51.67,360.083 H 29.644 c -8.993,0 -17.393,-4.011 -23.048,-11.005 C 0.943,342.083 -1.219,333.03 0.665,324.237 L 38.438,147.955 c 3.611,-23.591 22.652,-67.374 69.657,-67.374 38.529,0 69.875,31.346 69.875,69.875 0,7.717 -6.257,13.975 -13.975,13.975 -7.718,0 -13.975,-6.258 -13.975,-13.975 0,-23.118 -18.808,-41.925 -41.925,-41.925 -34.914,0 -41.804,42.198 -42.079,43.994 -0.041,0.27 -0.099,0.593 -0.157,0.859 L 27.995,330.093 c -0.112,0.521 10e-4,0.998 0.338,1.413 0.335,0.416 0.777,0.626 1.311,0.626 h 22.028 c 7.718,0 13.975,6.258 13.975,13.975 -0.001,7.717 -6.259,13.976 -13.977,13.976 z"
   style="fill:#11544f"
   inkscape:connector-curvature="0" />

	<path
   id="path819"
   d="m 482.356,360.083 h -22.028 c -7.717,0 -13.975,-6.258 -13.975,-13.975 0,-7.717 6.258,-13.975 13.975,-13.975 h 22.028 c 0.534,0 0.975,-0.21 1.311,-0.626 0.335,-0.415 0.449,-0.892 0.337,-1.413 L 446.137,153.386 c -0.064,-0.303 -0.119,-0.607 -0.164,-0.911 -0.267,-1.744 -7.157,-43.942 -42.071,-43.942 -23.118,0 -41.925,18.808 -41.925,41.925 0,7.717 -6.258,13.975 -13.975,13.975 -7.717,0 -13.975,-6.258 -13.975,-13.975 0,-38.529 31.346,-69.875 69.875,-69.875 47.005,0 66.046,43.784 69.657,67.375 l 37.775,176.28 c 1.885,8.793 -0.277,17.848 -5.931,24.841 -5.654,6.993 -14.054,11.004 -23.047,11.004 z"
   style="fill:#11544f"
   inkscape:connector-curvature="0" />

</g>
      <path
         id="path823"
         d="M 88.452679,126.14362 H 62.718246 c -6.817254,0 -12.343606,-5.52636 -12.343606,-12.34361 V 94.116333 c 0,-6.817254 5.526352,-12.343606 12.343606,-12.343606 h 25.734433 c 6.817254,0 12.343611,5.526352 12.343611,12.343606 v 19.683677 c 0,6.81725 -5.526357,12.34361 -12.343611,12.34361 z"
         style="fill:#6ab797;stroke-width:0.26458332"
         inkscape:connector-curvature="0" />
      <g
         transform="matrix(0.26458333,0,0,0.26458333,41.130363,15.694363)"
         id="g829">
	<path
   id="path825"
   d="M 178.856,431.42 H 81.591 c -33.43,0 -60.628,-27.198 -60.628,-60.628 v -74.395 c 0,-33.43 27.197,-60.628 60.628,-60.628 h 97.265 c 33.43,0 60.628,27.198 60.628,60.628 v 74.395 c 0,33.431 -27.197,60.628 -60.628,60.628 z M 81.591,263.719 c -18.019,0 -32.678,14.658 -32.678,32.678 v 74.395 c 0,18.02 14.658,32.678 32.678,32.678 h 97.265 c 18.019,0 32.678,-14.659 32.678,-32.678 v -74.395 c 0,-18.019 -14.658,-32.678 -32.678,-32.678 z"
   style="fill:#11544f"
   inkscape:connector-curvature="0" />

	<path
   id="path827"
   d="m 80.264,354.558 c -7.718,0 -13.975,-6.258 -13.975,-13.975 v -33.978 c 0,-13.392 10.895,-24.287 24.286,-24.287 h 31.008 c 7.718,0 13.975,6.258 13.975,13.975 0,7.717 -6.257,13.975 -13.975,13.975 H 94.24 v 30.313 c 0,7.72 -6.257,13.977 -13.976,13.977 z"
   style="fill:#11544f"
   inkscape:connector-curvature="0" />

</g>
      <path
         id="path831"
         d="m 155.00914,126.14362 h -25.73443 c -6.81725,0 -12.3436,-5.52636 -12.3436,-12.34361 V 94.116333 c 0,-6.817254 5.52635,-12.343606 12.3436,-12.343606 h 25.73443 c 6.81726,0 12.34361,5.526352 12.34361,12.343606 v 19.683677 c 0,6.81725 -5.52635,12.34361 -12.34361,12.34361 z"
         style="fill:#6ab797;stroke-width:0.26458332"
         inkscape:connector-curvature="0" />
      <g
         transform="matrix(0.26458333,0,0,0.26458333,41.130363,15.694363)"
         id="g837">
	<path
   id="path833"
   d="m 430.408,431.42 h -97.264 c -33.431,0 -60.63,-27.198 -60.63,-60.628 v -74.395 c 0,-33.43 27.198,-60.628 60.63,-60.628 h 97.264 c 33.431,0 60.63,27.198 60.63,60.628 v 74.395 c -0.002,33.431 -27.199,60.628 -60.63,60.628 z M 333.144,263.719 c -18.019,0 -32.679,14.658 -32.679,32.678 v 74.395 c 0,18.02 14.66,32.678 32.679,32.678 h 97.264 c 18.02,0 32.679,-14.659 32.679,-32.678 v -74.395 c 0,-18.019 -14.66,-32.678 -32.679,-32.678 z"
   style="fill:#11544f"
   inkscape:connector-curvature="0" />

	<path
   id="path835"
   d="m 331.818,354.558 c -7.717,0 -13.975,-6.258 -13.975,-13.975 v -33.978 c 0,-13.392 10.895,-24.287 24.286,-24.287 h 31.008 c 7.717,0 13.975,6.258 13.975,13.975 0,7.717 -6.258,13.975 -13.975,13.975 h -27.344 v 30.313 c 0,7.72 -6.258,13.977 -13.975,13.977 z"
   style="fill:#11544f"
   inkscape:connector-curvature="0" />

</g>
    </g>
    <g
       id="g839"
       transform="matrix(0.26458333,0,0,0.26458333,41.130363,15.694363)">
</g>
    <g
       id="g841"
       transform="matrix(0.26458333,0,0,0.26458333,41.130363,15.694363)">
</g>
    <g
       id="g843"
       transform="matrix(0.26458333,0,0,0.26458333,41.130363,15.694363)">
</g>
    <g
       id="g845"
       transform="matrix(0.26458333,0,0,0.26458333,41.130363,15.694363)">
</g>
    <g
       id="g847"
       transform="matrix(0.26458333,0,0,0.26458333,41.130363,15.694363)">
</g>
    <g
       id="g849"
       transform="matrix(0.26458333,0,0,0.26458333,41.130363,15.694363)">
</g>
    <g
       id="g851"
       transform="matrix(0.26458333,0,0,0.26458333,41.130363,15.694363)">
</g>
    <g
       id="g853"
       transform="matrix(0.26458333,0,0,0.26458333,41.130363,15.694363)">
</g>
    <g
       id="g855"
       transform="matrix(0.26458333,0,0,0.26458333,41.130363,15.694363)">
</g>
    <g
       id="g857"
       transform="matrix(0.26458333,0,0,0.26458333,41.130363,15.694363)">
</g>
    <g
       id="g859"
       transform="matrix(0.26458333,0,0,0.26458333,41.130363,15.694363)">
</g>
    <g
       id="g861"
       transform="matrix(0.26458333,0,0,0.26458333,41.130363,15.694363)">
</g>
    <g
       id="g863"
       transform="matrix(0.26458333,0,0,0.26458333,41.130363,15.694363)">
</g>
    <g
       id="g865"
       transform="matrix(0.26458333,0,0,0.26458333,41.130363,15.694363)">
</g>
    <g
       id="g867"
       transform="matrix(0.26458333,0,0,0.26458333,41.130363,15.694363)">
</g>
    <flowRoot
       xml:space="preserve"
       id="flowRoot905"
       style="font-style:normal;font-variant:normal;font-weight:normal;font-stretch:normal;font-size:40px;line-height:1.25;font-family:'Courier New';-inkscape-font-specification:'Courier New';letter-spacing:0px;word-spacing:0px;fill:#000000;fill-opacity:1;stroke:none"
       transform="scale(0.26458333)"><flowRegion
         id="flowRegion907"
         style="font-style:normal;font-variant:normal;font-weight:normal;font-stretch:normal;font-family:'Courier New';-inkscape-font-specification:'Courier New'"><rect
           id="rect909"
           width="648.58832"
           height="226.14217"
           x="80.092018"
           y="588.57288"
           style="font-style:normal;font-variant:normal;font-weight:normal;font-stretch:normal;font-family:'Courier New';-inkscape-font-specification:'Courier New'" /></flowRegion><flowPara
         id="flowPara911"></flowPara></flowRoot>    <text
       xml:space="preserve"
       style="font-style:normal;font-variant:normal;font-weight:bold;font-stretch:normal;font-size:25.39999962px;line-height:1.25;font-family:'Courier New';-inkscape-font-specification:'Courier New Bold';letter-spacing:0px;word-spacing:0px;fill:#11544f;fill-opacity:1;stroke:none;stroke-width:0.26458332"
       x="-47.579838"
       y="173.59349"
       id="text915"><tspan
         sodipodi:role="line"
         id="tspan913"
         x="-47.579838"
         y="173.59349"
         style="font-style:normal;font-variant:normal;font-weight:bold;font-stretch:normal;font-size:25.39999962px;font-family:'Courier New';-inkscape-font-specification:'Courier New Bold';fill:#11544f;fill-opacity:1;stroke-width:0.26458332">Face recognition app</tspan></text>
    <flowRoot
       xml:space="preserve"
       id="flowRoot944"
       style="font-style:normal;font-weight:normal;font-size:40px;line-height:1.25;font-family:sans-serif;letter-spacing:0px;word-spacing:0px;fill:#000000;fill-opacity:1;stroke:none"
       transform="scale(0.26458333)"><flowRegion
         id="flowRegion946"><rect
           id="rect948"
           width="193.1631"
           height="76.951157"
           x="354.91757"
           y="543.03033" /></flowRegion><flowPara
         id="flowPara950"></flowPara></flowRoot>    <flowRoot
       xml:space="preserve"
       id="flowRoot966"
       style="font-style:normal;font-weight:normal;font-size:40px;line-height:1.25;font-family:sans-serif;letter-spacing:0px;word-spacing:0px;fill:#000000;fill-opacity:1;stroke:none"
       transform="matrix(0.26458333,0,0,0.26458333,-12.708579,37.014752)"><flowRegion
         id="flowRegion968"><rect
           id="rect970"
           width="1623.8264"
           height="802.4906"
           x="-373.76276"
           y="-162.32353" /></flowRegion><flowPara
         id="flowPara972"></flowPara></flowRoot>  </g>
</svg>
