<?xml version="1.0" encoding="UTF-8" standalone="no"?>
<svg
   xmlns:dc="http://purl.org/dc/elements/1.1/"
   xmlns:cc="http://creativecommons.org/ns#"
   xmlns:rdf="http://www.w3.org/1999/02/22-rdf-syntax-ns#"
   xmlns:svg="http://www.w3.org/2000/svg"
   xmlns="http://www.w3.org/2000/svg"
   xmlns:xlink="http://www.w3.org/1999/xlink"
   xmlns:sodipodi="http://sodipodi.sourceforge.net/DTD/sodipodi-0.dtd"
   xmlns:inkscape="http://www.inkscape.org/namespaces/inkscape"
   width="120mm"
   height="35mm"
   viewBox="0 0 120 35"
   version="1.1"
   id="svg926"
   sodipodi:docname="fylo.svg"
   inkscape:version="0.92.3 (2405546, 2018-03-11)">
  <defs
     id="defs914">
    <path
       id="a"
       d="M.01.021h67.924V34.93H.01z" />
  </defs>
  <path
     style="fill:#bdbafa;fill-rule:evenodd"
     inkscape:connector-curvature="0"
     id="path916"
     d="m 0,10.215 v 0.088 l 20.205,9.492 20.277,-9.524 V 10.247 L 20.205,0.723 Z m 7.284,0.044 12.922,-6.07 12.922,6.07 -12.923,6.07 -12.92,-6.07 z M 20.205,23.482 0,14.132 v 3.458 l 20.205,9.372 20.277,-9.404 V 14.1 Z m 0,7.014 L 0,21.145 v 3.458 l 20.205,9.373 20.277,-9.405 v -3.458 z" />
  <g
     style="fill:#ffffff;fill-rule:evenodd;fill-opacity:1;stroke:none"
     id="g922"
     transform="translate(52.048)">
    <mask
       fill="#fff"
       id="b">
      <use
         height="100%"
         width="100%"
         y="0"
         x="0"
         id="use918"
         xlink:href="#a" />
    </mask>
    <path
       style="fill:#ffffff;fill-opacity:1;stroke:none"
       inkscape:connector-curvature="0"
       id="napis"
       mask="url(#b)"
       d="m 63.296,17.46 a 5.856,5.856 0 0 0 -1.562,-4.03 5.247,5.247 0 0 0 -1.69,-1.208 4.962,4.962 0 0 0 -2.062,-0.436 c -0.73,0 -1.417,0.145 -2.061,0.436 a 5.246,5.246 0 0 0 -1.691,1.208 5.857,5.857 0 0 0 -1.562,4.03 5.857,5.857 0 0 0 1.562,4.029 5.246,5.246 0 0 0 1.69,1.208 c 0.645,0.29 1.332,0.435 2.062,0.435 0.73,0 1.417,-0.145 2.061,-0.435 a 5.247,5.247 0 0 0 1.691,-1.208 5.856,5.856 0 0 0 1.562,-4.03 z m 4.638,0 c 0,1.396 -0.258,2.69 -0.773,3.883 a 9.468,9.468 0 0 1 -2.126,3.095 c -0.902,0.87 -1.96,1.558 -3.172,2.063 a 9.996,9.996 0 0 1 -3.881,0.757 9.878,9.878 0 0 1 -3.865,-0.757 10.021,10.021 0 0 1 -3.156,-2.08 9.652,9.652 0 0 1 -2.126,-3.11 C 48.32,20.119 48.062,18.835 48.062,17.459 a 9.36,9.36 0 0 1 0.79,-3.82 10.063,10.063 0 0 1 2.141,-3.126 9.883,9.883 0 0 1 3.156,-2.095 9.796,9.796 0 0 1 3.833,-0.757 c 1.374,0 2.668,0.252 3.88,0.757 a 10.115,10.115 0 0 1 3.173,2.063 9.426,9.426 0 0 1 2.126,3.11 9.722,9.722 0 0 1 0.773,3.868 z m -21.482,9.218 a 6.217,6.217 0 0 1 -1.24,0.42 c -0.462,0.107 -0.94,0.16 -1.433,0.16 a 7.114,7.114 0 0 1 -1.98,-0.274 4.34,4.34 0 0 1 -1.66,-0.886 C 39.667,25.69 39.291,25.158 39.012,24.502 38.733,23.847 38.594,23.057 38.594,22.133 V 0.021 h 4.734 v 21.306 c 0,0.774 0.156,1.306 0.467,1.596 0.311,0.29 0.682,0.435 1.111,0.435 0.537,0 1.052,-0.161 1.546,-0.483 z M 36.5,8.112 28.126,30.256 c -0.622,1.655 -1.438,2.847 -2.447,3.578 -1.01,0.73 -2.212,1.096 -3.607,1.096 a 5.744,5.744 0 0 1 -1.45,-0.194 l -1.546,-4.319 c 0.365,0.172 0.741,0.306 1.128,0.403 a 4.52,4.52 0 0 0 1.095,0.145 4.05,4.05 0 0 0 1.996,-0.5 c 0.602,-0.333 1.063,-0.95 1.385,-1.853 l 0.644,-1.87 -7.182,-18.63 H 23.2 l 4.283,11.99 4.026,-11.99 H 36.5 Z M 17.015,5.308 H 4.905 v 5.995 h 11.95 v 4.061 H 4.904 v 11.41 H 0.01 V 1.022 h 17.005 v 4.287 z" />
  </g>
</svg>
