<?xml version="1.0" encoding="UTF-8" standalone="no"?>
<!-- Created with Inkscape (http://www.inkscape.org/) -->

<svg
   xmlns:dc="http://purl.org/dc/elements/1.1/"
   xmlns:cc="http://creativecommons.org/ns#"
   xmlns:rdf="http://www.w3.org/1999/02/22-rdf-syntax-ns#"
   xmlns:svg="http://www.w3.org/2000/svg"
   xmlns="http://www.w3.org/2000/svg"
   xmlns:sodipodi="http://sodipodi.sourceforge.net/DTD/sodipodi-0.dtd"
   xmlns:inkscape="http://www.inkscape.org/namespaces/inkscape"
   width="560.799911mm"
   height="90.5249996mm"
   viewBox="0 0 56.799912 9.5249997"
   version="1.1"
   id="svg8"
   inkscape:version="0.92.3 (2405546, 2018-03-11)"
   sodipodi:docname="kitchen_planner.svg">
  <defs
     id="defs2" />
  <sodipodi:namedview
     id="base"
     pagecolor="#ffffff"
     bordercolor="#666666"
     borderopacity="1.0"
     inkscape:pageopacity="0.0"
     inkscape:pageshadow="2"
     inkscape:zoom="7.9195959"
     inkscape:cx="161.55751"
     inkscape:cy="31.617214"
     inkscape:document-units="mm"
     inkscape:current-layer="layer1"
     showgrid="false"
     inkscape:window-width="3840"
     inkscape:window-height="2066"
     inkscape:window-x="-11"
     inkscape:window-y="-11"
     inkscape:window-maximized="1" />
  <metadata
     id="metadata5">
    <rdf:RDF>
      <cc:Work
         rdf:about="">
        <dc:format>image/svg+xml</dc:format>
        <dc:type
           rdf:resource="http://purl.org/dc/dcmitype/StillImage" />
        <dc:title />
      </cc:Work>
    </rdf:RDF>
  </metadata>
  <g
     inkscape:label="Layer 1"
     inkscape:groupmode="layer"
     id="layer1"
     transform="translate(685.98139,216.75885)">
    <g
       aria-label="Kitchen planner"
       style="font-style:normal;font-weight:normal;font-size:10.58333302px;line-height:1.25;font-family:sans-serif;letter-spacing:0px;word-spacing:0px;fill:#ffffff;fill-opacity:1;stroke:none;stroke-width:0.26458332"
       id="text817">
      <path
         d="m -681.58931,-210.91685 q 0,0.10584 -0.14816,0.17992 -0.13759,0.0635 -0.37042,0.0635 -0.20108,0 -0.635,-0.0423 -0.42333,-0.0423 -0.89958,-0.13759 -0.47625,-0.0952 -0.91017,-0.23283 -0.42333,-0.14817 -0.62442,-0.34925 0.0212,0.0847 0.0741,0.23283 0.0529,0.13759 0.11641,0.30692 0.11642,0.29633 0.21167,0.60325 0.10583,0.29633 0.10583,0.47625 0,0.33867 -0.0529,0.508 -0.0423,0.17992 -0.20109,0.17992 -0.127,0 -0.17991,-0.10584 -0.0529,-0.10583 -0.0529,-0.254 0,-0.0106 0,-0.0529 0,-0.0423 0.0106,-0.24342 0,-0.0847 -0.0106,-0.16933 -0.0106,-0.0847 -0.0317,-0.14817 -0.16933,-0.41275 -0.3175,-0.8255 -0.13758,-0.42333 -0.26458,-0.93133 -0.0317,-0.10584 -0.0741,-0.26459 -0.0317,-0.16933 -0.0635,-0.43391 -0.0317,-0.27517 -0.0529,-0.66675 -0.0212,-0.40217 -0.0212,-0.97367 0,-0.4445 0.0741,-0.67733 0.0741,-0.24342 0.17992,-0.24342 0.0952,0 0.15875,0.14817 0.0635,0.13758 0.0635,0.26458 0,0.34925 -0.0106,0.53975 0,0.1905 0,0.27517 0,0.32808 0.0317,0.65616 0.0317,0.3175 0.0741,0.59267 0.0423,0.3175 0.10583,0.60325 0.127,-0.26458 0.27517,-0.56092 0.15875,-0.30691 0.32808,-0.60325 0.16934,-0.30691 0.33867,-0.60325 0.16933,-0.29633 0.32808,-0.56091 0.10584,-0.17992 0.23284,-0.30692 0.13758,-0.127 0.254,-0.127 0.0847,0 0.1905,0.0741 0.10583,0.0635 0.10583,0.17992 0,0.0318 -0.0106,0.0741 -0.0106,0.0317 -0.0212,0.0529 -0.0529,0.0847 -0.127,0.16933 -0.0635,0.0847 -0.11642,0.16934 -0.16933,0.24341 -0.381,0.55033 -0.21166,0.30692 -0.40216,0.61383 -0.17992,0.29634 -0.30692,0.56092 -0.127,0.26458 -0.127,0.42333 0,0.16934 0.20108,0.29634 0.20109,0.127 0.49742,0.22225 0.29633,0.0847 0.64558,0.14816 0.35984,0.0529 0.66675,0.0952 0.30692,0.0317 0.51859,0.0529 0.22225,0.0106 0.24341,0.0106 0.24342,0 0.30692,0.0423 0.0741,0.0317 0.0741,0.14816 z"
         style="font-style:normal;font-variant:normal;font-weight:normal;font-stretch:normal;font-family:'Reenie Beanie';-inkscape-font-specification:'Reenie Beanie';fill:#ffffff;fill-opacity:1;stroke-width:0.26458332"
         id="path941" />
      <path
         d="m -680.39604,-214.35643 q 0,0.0212 -0.0741,0.0847 -0.0741,0.0635 -0.17992,0.13758 -0.0952,0.0635 -0.20108,0.11642 -0.10583,0.0529 -0.16933,0.0529 -0.0423,0 -0.11642,0 -0.0635,-0.0106 -0.13758,-0.0423 -0.0635,-0.0317 -0.11642,-0.0847 -0.0529,-0.0635 -0.0529,-0.15875 0,-0.14816 0.10584,-0.27516 0.10583,-0.13759 0.27516,-0.13759 0.0317,0 0.13759,0.0318 0.11641,0.0212 0.23283,0.0635 0.11642,0.0423 0.20108,0.0952 0.0953,0.0529 0.0953,0.11642 z m 0.34925,3.95817 q 0,0.0741 -0.11641,0.127 -0.10584,0.0529 -0.15875,0.0529 -0.10584,0 -0.1905,-0.13758 -0.0847,-0.13758 -0.14817,-0.3175 -0.0635,-0.17992 -0.10583,-0.33867 -0.0423,-0.16933 -0.0635,-0.23283 -0.0317,-0.10583 -0.0847,-0.254 -0.0529,-0.14817 -0.10583,-0.28575 -0.0423,-0.13758 -0.0741,-0.24342 -0.0317,-0.10583 -0.0317,-0.11641 0,-0.14817 0.0529,-0.27517 0.0635,-0.127 0.14817,-0.127 0.0952,0 0.20108,0.14817 0.10583,0.14816 0.20108,0.381 0.10584,0.22225 0.1905,0.49741 0.0847,0.26459 0.14817,0.508 0.0635,0.23284 0.0952,0.41275 0.0423,0.16934 0.0423,0.20109 z"
         style="font-style:normal;font-variant:normal;font-weight:normal;font-stretch:normal;font-family:'Reenie Beanie';-inkscape-font-specification:'Reenie Beanie';fill:#ffffff;fill-opacity:1;stroke-width:0.26458332"
         id="path943" />
      <path
         d="m -676.58289,-214.27176 q -0.13759,0.15875 -0.39159,0.3175 -0.254,0.14816 -0.508,0.27516 -0.254,0.127 -0.4445,0.22225 -0.1905,0.0847 -0.1905,0.11642 0,0.0317 0.0423,0.1905 0.0423,0.15875 0.0953,0.381 0.0635,0.21167 0.127,0.4445 0.0635,0.23283 0.10583,0.41275 0.0212,0.10583 0.0529,0.27517 0.0317,0.16933 0.0529,0.33866 0.0317,0.16934 0.0529,0.30692 0.0212,0.127 0.0212,0.13758 0,0.15875 -0.0529,0.32809 -0.0529,0.16933 -0.16933,0.16933 -0.0635,0 -0.11642,-0.0529 -0.0529,-0.0529 -0.0953,-0.11641 -0.0423,-0.0741 -0.0635,-0.13759 -0.0212,-0.0635 -0.0212,-0.0953 0,-0.0212 0,-0.0635 0.0106,-0.0423 0.0106,-0.0953 0,-0.20108 -0.0635,-0.58208 -0.0212,-0.11642 -0.0847,-0.35983 -0.0635,-0.24342 -0.127,-0.49742 -0.0741,-0.29633 -0.16933,-0.64558 -0.0423,-0.14817 -0.0529,-0.14817 -0.0741,0 -0.254,0.0953 -0.16933,0.0847 -0.39158,0.22225 -0.22225,0.127 -0.46567,0.28575 -0.24342,0.14817 -0.45508,0.28575 -0.21167,0.127 -0.35984,0.22225 -0.15875,0.0847 -0.1905,0.0847 -0.13758,0 -0.22225,-0.0952 -0.0847,-0.0952 -0.0847,-0.21167 0,-0.0635 0.17991,-0.17992 0.16934,-0.127 0.43392,-0.27516 0.254,-0.14817 0.56092,-0.30692 0.29633,-0.15875 0.55033,-0.28575 0.26458,-0.127 0.43392,-0.21167 0.17991,-0.0847 0.17991,-0.0847 -0.0952,-0.48684 -0.15875,-0.86784 -0.0529,-0.32808 -0.10583,-0.60325 -0.0423,-0.27516 -0.0423,-0.29633 0,-0.13758 0.0529,-0.20108 0.0635,-0.0741 0.13759,-0.0741 0.11641,0 0.14816,0.15875 0.11642,0.5715 0.21167,1.016 0.10583,0.4445 0.20108,0.71967 0.0952,-0.0212 0.32809,-0.11642 0.23283,-0.10583 0.48683,-0.22225 0.254,-0.11641 0.45508,-0.20108 0.21167,-0.0952 0.24342,-0.0952 0.0635,0 0.0741,0.0423 0.0212,0.0423 0.0423,0.0741 z"
         style="font-style:normal;font-variant:normal;font-weight:normal;font-stretch:normal;font-family:'Reenie Beanie';-inkscape-font-specification:'Reenie Beanie';fill:#ffffff;fill-opacity:1;stroke-width:0.26458332"
         id="path945" />
      <path
         d="m -672.97018,-211.41426 q 0,0.10583 -0.0317,0.22225 -0.0317,0.10583 -0.0635,0.17991 -0.0212,0.0318 -0.20108,0.22225 -0.16933,0.17992 -0.43392,0.381 -0.254,0.20109 -0.58208,0.37042 -0.3175,0.15875 -0.61383,0.15875 -0.17992,0 -0.37042,-0.0635 -0.17991,-0.0635 -0.33866,-0.20108 -0.15875,-0.14817 -0.26459,-0.35984 -0.0952,-0.21166 -0.0952,-0.51858 0,-0.508 0.16934,-0.92075 0.16933,-0.41275 0.33866,-0.65617 0.0741,-0.11641 0.1905,-0.23283 0.127,-0.127 0.24342,-0.22225 0.11641,-0.10583 0.21166,-0.16933 0.10584,-0.0635 0.14817,-0.0635 0.0952,0 0.16933,0.0529 0.0847,0.0529 0.0847,0.10584 0,0.0847 -0.0529,0.14816 -0.0423,0.0529 -0.127,0.127 -0.0847,0.0635 -0.20108,0.17992 -0.11642,0.10583 -0.24342,0.28575 -0.25399,0.34925 -0.38099,0.71967 -0.11642,0.35983 -0.11642,0.635 0,0.27516 0.20108,0.4445 0.21167,0.15875 0.43392,0.15875 0.40216,0 0.70908,-0.17992 0.3175,-0.17992 0.53975,-0.40217 0.22225,-0.22225 0.35983,-0.40216 0.13759,-0.17992 0.20109,-0.17992 0.11641,0 0.11641,0.17992 z"
         style="font-style:normal;font-variant:normal;font-weight:normal;font-stretch:normal;font-family:'Reenie Beanie';-inkscape-font-specification:'Reenie Beanie';fill:#ffffff;fill-opacity:1;stroke-width:0.26458332"
         id="path947" />
      <path
         d="m -668.74544,-211.44601 q 0.0529,0.0529 0.0529,0.0635 0,0.0212 -0.0635,0.127 -0.0529,0.10583 -0.14817,0.22225 -0.0953,0.11641 -0.21167,0.21166 -0.10583,0.0847 -0.21166,0.0847 -0.22225,0 -0.35984,-0.0847 -0.13758,-0.0953 -0.23283,-0.23283 -0.0847,-0.13758 -0.13758,-0.29633 -0.0423,-0.16934 -0.0741,-0.3175 -0.0212,-0.0741 -0.0423,-0.0741 -0.0318,0 -0.127,0.23284 -0.0952,0.22225 -0.21167,0.49741 -0.10583,0.26459 -0.21166,0.49742 -0.0952,0.22225 -0.127,0.22225 -0.1905,0 -0.32809,-0.15875 -0.127,-0.16933 -0.21166,-0.381 -0.0741,-0.22225 -0.11642,-0.4445 -0.0423,-0.23283 -0.0529,-0.35983 -0.0317,-0.28575 -0.13758,-0.9525 -0.10583,-0.66675 -0.17992,-1.61925 -0.0212,-0.20109 -0.0529,-0.35984 -0.0212,-0.16933 -0.0529,-0.37041 -0.0317,-0.20109 -0.0529,-0.45509 -0.0212,-0.254 -0.0212,-0.62441 0,-0.0212 0.0106,-0.13759 0.0106,-0.11641 0.0318,-0.254 0.0212,-0.13758 0.0635,-0.24341 0.0529,-0.10584 0.11642,-0.10584 0.0741,0 0.13758,0.0952 0.0635,0.0847 0.10583,0.20109 0.0529,0.11641 0.0741,0.22225 0.0212,0.10583 0.0212,0.14816 0,0.15875 -0.0212,0.29634 -0.0212,0.13758 -0.0212,0.254 0,0.15875 0.0212,0.40216 0.0317,0.24342 0.0741,0.49742 0.0423,0.254 0.0741,0.49742 0.0317,0.23283 0.0529,0.381 0,0.0106 0.0212,0.14816 0.0212,0.13759 0.0423,0.34925 0.0317,0.20109 0.0529,0.4445 0.0317,0.23284 0.0635,0.46567 0.0317,0.22225 0.0529,0.40217 0.0317,0.16933 0.0423,0.24341 0,0.0317 0.0106,0.0952 0.0212,0.0529 0.0317,0.127 0.0212,0.0741 0.0423,0.13759 0.0212,0.0635 0.0529,0.0953 0.0635,-0.127 0.15875,-0.39159 0.10583,-0.26458 0.21167,-0.53975 0.11641,-0.27516 0.21166,-0.47625 0.10584,-0.21166 0.17992,-0.21166 0.0847,0 0.13758,0.0318 0.0529,0.0317 0.13759,0.0529 0.10583,0.0423 0.10583,0.11642 0,0.0635 0.0212,0.15875 0.0212,0.127 0.0635,0.33867 0.0529,0.20108 0.11641,0.40216 0.0635,0.1905 0.14817,0.32809 0.0847,0.13758 0.16933,0.13758 0.0423,0 0.11642,-0.10583 0.0741,-0.11642 0.20108,-0.127 0.0212,0 0.0741,0.0317 0.0529,0.0212 0.10583,0.0635 z"
         style="font-style:normal;font-variant:normal;font-weight:normal;font-stretch:normal;font-family:'Reenie Beanie';-inkscape-font-specification:'Reenie Beanie';fill:#ffffff;fill-opacity:1;stroke-width:0.26458332"
         id="path949" />
      <path
         d="m -665.11784,-210.59935 q 0.0106,0.0212 0.0106,0.0635 0,0.0635 -0.0952,0.1905 -0.0317,0.0423 -0.13759,0.13759 -0.10583,0.0953 -0.28575,0.1905 -0.17991,0.0952 -0.4445,0.16933 -0.254,0.0741 -0.60325,0.0741 -0.24341,0 -0.47625,-0.10583 -0.23283,-0.11642 -0.41275,-0.32808 -0.17991,-0.22225 -0.29633,-0.53975 -0.11642,-0.32809 -0.11642,-0.762 0,-0.41275 0.10584,-0.77259 0.10583,-0.35983 0.26458,-0.635 0.16933,-0.27516 0.37042,-0.43391 0.20108,-0.15875 0.39158,-0.15875 0.16933,0 0.33867,0.0741 0.17991,0.0635 0.3175,0.16933 0.14816,0.10584 0.23283,0.24342 0.0847,0.127 0.0847,0.26458 0,0.15875 -0.14817,0.32809 -0.13758,0.16933 -0.33867,0.3175 -0.20108,0.13758 -0.40216,0.23283 -0.20109,0.0847 -0.3175,0.0847 -0.0635,0 -0.11642,-0.0529 -0.0423,-0.0635 -0.0423,-0.14817 0,-0.14816 0.127,-0.23283 0.13758,-0.0847 0.29633,-0.14817 0.15875,-0.0741 0.28575,-0.16933 0.13758,-0.0952 0.13758,-0.26458 0,-0.0212 -0.0529,-0.10584 -0.0529,-0.0847 -0.28575,-0.0847 -0.10584,0 -0.24342,0.127 -0.13758,0.11641 -0.26458,0.32808 -0.127,0.20108 -0.21167,0.48683 -0.0847,0.27517 -0.0847,0.60325 0,0.27517 0.0952,0.49742 0.10584,0.22225 0.26459,0.381 0.15875,0.14817 0.37041,0.23283 0.21167,0.0847 0.43392,0.0847 0.15875,0 0.33867,-0.0635 0.1905,-0.0741 0.34925,-0.14817 0.16933,-0.0847 0.28575,-0.14816 0.127,-0.0741 0.15875,-0.0741 0.0317,0 0.0635,0.0318 0.0423,0.0317 0.0529,0.0635 z"
         style="font-style:normal;font-variant:normal;font-weight:normal;font-stretch:normal;font-family:'Reenie Beanie';-inkscape-font-specification:'Reenie Beanie';fill:#ffffff;fill-opacity:1;stroke-width:0.26458332"
         id="path951" />
      <path
         d="m -661.18497,-210.78985 q 0,0.0635 -0.0423,0.127 -0.0423,0.0635 -0.10583,0.11642 -0.0529,0.0529 -0.127,0.0952 -0.0635,0.0317 -0.11642,0.0317 -0.17991,0 -0.46566,-0.0741 -0.27517,-0.0847 -0.4445,-0.254 -0.17992,-0.17992 -0.3175,-0.42334 -0.13759,-0.254 -0.30692,-0.74083 -0.11642,0.46567 -0.27517,0.92075 -0.14816,0.45508 -0.48683,0.83608 -0.0212,0.0212 -0.0635,0.0212 -0.0741,0 -0.15875,-0.0741 -0.0847,-0.0741 -0.0847,-0.14817 0,-0.0741 -0.0212,-0.33867 -0.0106,-0.27516 -0.0317,-0.60325 -0.0212,-0.33866 -0.0423,-0.67733 -0.0106,-0.34925 -0.0106,-0.5715 0,-0.10583 0.0106,-0.27517 0.0106,-0.17991 0.0635,-0.30691 0.0106,-0.0212 0.0741,-0.0847 0.0741,-0.0635 0.15875,-0.0635 0.0741,0 0.0847,0.0952 0.0106,0.0952 0.0106,0.21167 v 1.67216 q 0,0.0529 0.0106,0.14817 0.0212,0.0952 0.0529,0.13758 0.11641,-0.254 0.21166,-0.59266 0.10584,-0.34925 0.20109,-0.65617 0.0952,-0.3175 0.1905,-0.52917 0.0952,-0.22225 0.1905,-0.22225 0.10583,0 0.16933,0.0423 0.0635,0.0423 0.10583,0.16933 0.0529,0.30692 0.0847,0.55033 0.0317,0.23284 0.0741,0.42334 0.0529,0.1905 0.13759,0.35983 0.0952,0.15875 0.254,0.29633 0.14816,0.13759 0.32808,0.20109 0.1905,0.0635 0.32808,0.0635 0.0635,0 0.13759,-0.0212 0.0741,-0.0318 0.10583,-0.0318 0.0423,0 0.0741,0.0741 0.0423,0.0741 0.0423,0.0952 z"
         style="font-style:normal;font-variant:normal;font-weight:normal;font-stretch:normal;font-family:'Reenie Beanie';-inkscape-font-specification:'Reenie Beanie';fill:#ffffff;fill-opacity:1;stroke-width:0.26458332"
         id="path953" />
      <path
         d="m -652.85986,-212.54668 q 0,0.27517 -0.15875,0.52917 -0.14816,0.254 -0.37041,0.47625 -0.22225,0.21166 -0.48684,0.40216 -0.26458,0.17992 -0.48683,0.3175 -0.21167,0.14817 -0.34925,0.24342 -0.13758,0.0952 -0.13758,0.14817 0,0.13758 0.0317,0.39158 0.0317,0.24342 0.0741,0.53975 0.0529,0.28575 0.0952,0.59267 0.0529,0.30691 0.0741,0.56091 0,0.0106 0.0106,0.0952 0.0212,0.0847 0.0423,0.1905 0.0317,0.10584 0.0423,0.1905 0.0212,0.0953 0.0212,0.11642 0,0.0741 -0.0106,0.15875 0,0.0952 -0.0317,0.16933 -0.0212,0.0847 -0.0741,0.13759 -0.0529,0.0529 -0.13758,0.0529 -0.11642,0 -0.16933,-0.10583 -0.0529,-0.0953 -0.0529,-0.1905 0,-0.0212 0,-0.0423 0.0106,-0.0212 0.0106,-0.0529 0,-0.11642 -0.0847,-0.62442 -0.0847,-0.508 -0.1905,-1.21708 -0.10584,-0.6985 -0.1905,-1.50283 -0.0847,-0.81492 -0.0847,-1.53459 0,-0.0529 0.0106,-0.11641 0.0106,-0.0741 0.0106,-0.127 -0.10584,0.0106 -0.3175,0.0952 -0.20109,0.0847 -0.40217,0.21166 -0.20108,0.11642 -0.35983,0.254 -0.14817,0.127 -0.14817,0.23284 h -0.0741 q -0.0317,0 -0.0741,-0.0423 -0.0529,-0.0423 -0.0847,-0.0952 -0.0423,-0.0529 -0.0741,-0.10583 -0.0317,-0.0529 -0.0317,-0.0741 0,-0.22225 0.26459,-0.41275 0.26458,-0.20109 0.65616,-0.34925 0.40217,-0.15875 0.87842,-0.24342 0.47625,-0.0952 0.89958,-0.0952 0.41275,0 0.68792,0.0952 0.28575,0.0952 0.45508,0.23283 0.16934,0.127 0.24342,0.26459 0.0741,0.13758 0.0741,0.23283 z m -0.51858,-0.0317 q 0,-0.10583 -0.26458,-0.21167 -0.26459,-0.11641 -0.62442,-0.11641 -0.3175,0 -0.46567,0.0212 -0.14816,0.0212 -0.20108,0.0423 -0.0212,0.16933 -0.0318,0.40216 -0.0106,0.23284 -0.0106,0.47625 0,0.254 0.0106,0.49742 0.0212,0.23283 0.0423,0.39158 0.14817,-0.0952 0.40217,-0.254 0.26458,-0.16933 0.51858,-0.37041 0.254,-0.21167 0.43392,-0.43392 0.1905,-0.23283 0.1905,-0.4445 z"
         style="font-style:normal;font-variant:normal;font-weight:normal;font-stretch:normal;font-family:'Reenie Beanie';-inkscape-font-specification:'Reenie Beanie';fill:#ffffff;fill-opacity:1;stroke-width:0.26458332"
         id="path955" />
      <path
         d="m -650.8601,-209.79501 q 0,0.0847 -0.0635,0.127 -0.0635,0.0423 -0.14817,0.0423 -0.0952,0 -0.20108,-0.17992 -0.0953,-0.17991 -0.1905,-0.45508 -0.0952,-0.27517 -0.17992,-0.59267 -0.0847,-0.32808 -0.14817,-0.60325 -0.0635,-0.28575 -0.10583,-0.47625 -0.0317,-0.1905 -0.0317,-0.21166 0,-0.0423 -0.0423,-0.22225 -0.0317,-0.17992 -0.0952,-0.56092 -0.0529,-0.381 -0.127,-0.98425 -0.0635,-0.61383 -0.13759,-1.51342 0,-0.0952 0.0317,-0.24341 0.0317,-0.14817 0.14817,-0.14817 0.14817,0 0.22225,0.20108 0.0847,0.20109 0.127,0.49742 0.0529,0.29633 0.0741,0.62442 0.0212,0.3175 0.0529,0.56091 0.0423,0.33867 0.0741,0.61384 0.0423,0.27516 0.0741,0.55033 0.0423,0.26458 0.0952,0.56092 0.0635,0.29633 0.14816,0.65616 l 0.42334,1.75684 z"
         style="font-style:normal;font-variant:normal;font-weight:normal;font-stretch:normal;font-family:'Reenie Beanie';-inkscape-font-specification:'Reenie Beanie';fill:#ffffff;fill-opacity:1;stroke-width:0.26458332"
         id="path957" />
      <path
         d="m -645.00818,-211.68943 q 0,0.1905 -0.17992,0.47625 -0.16933,0.27517 -0.46567,0.53975 -0.29633,0.26458 -0.68791,0.45508 -0.39159,0.17992 -0.81492,0.17992 -0.1905,0 -0.40217,-0.0635 -0.21166,-0.0635 -0.41275,-0.17992 -0.20108,-0.127 -0.35983,-0.29633 -0.15875,-0.17992 -0.23283,-0.40217 -0.0635,0.0635 -0.15875,0.21167 -0.0847,0.14817 -0.1905,0.30692 -0.10584,0.14816 -0.23284,0.26458 -0.127,0.10583 -0.26458,0.10583 -0.13758,0 -0.23283,-0.13758 -0.0847,-0.14817 -0.13759,-0.3175 -0.0529,-0.17992 -0.0741,-0.33867 -0.0212,-0.15875 -0.0212,-0.17991 0,-0.127 0.0741,-0.47625 0.0741,-0.35984 0.22225,-0.74084 0.14816,-0.381 0.37041,-0.67733 0.23284,-0.29633 0.53975,-0.29633 0.11642,0 0.14817,0.10583 0.0423,0.0953 0.0423,0.1905 v 0.3175 q 0.0529,0.0423 0.10584,0.0635 0.0635,0.0106 0.10583,0.0423 0.0529,0.0212 0.0741,0.0741 0.0317,0.0529 0.0317,0.16933 0,0.0741 -0.0106,0.13758 -0.0106,0.0529 -0.0106,0.10584 0,0.27516 0.0423,0.53975 0.0423,0.26458 0.16933,0.47625 0.127,0.20108 0.34925,0.33866 0.22225,0.127 0.59267,0.127 0.46567,0 0.78317,-0.1905 0.32808,-0.20108 0.53975,-0.43391 0.22225,-0.24342 0.34925,-0.43392 0.127,-0.20108 0.21166,-0.20108 0.13759,0 0.13759,0.13758 z m -3.71475,-0.46567 q 0,-0.0423 -0.0212,-0.0741 -0.0212,-0.0423 -0.0212,-0.0741 0,-0.0423 0.0212,-0.0741 0.0212,-0.0317 0.0212,-0.0847 0,-0.0318 -0.0212,-0.0423 -0.0212,-0.0212 -0.0212,-0.0423 -0.0952,0.0212 -0.20108,0.17992 -0.0952,0.15875 -0.1905,0.37041 -0.0847,0.21167 -0.13758,0.43392 -0.0529,0.21167 -0.0529,0.34925 0,0.0741 0.0423,0.24342 0.0423,0.16933 0.0952,0.22225 0.17992,-0.37042 0.32809,-0.71967 0.15875,-0.34925 0.15875,-0.68792 z"
         style="font-style:normal;font-variant:normal;font-weight:normal;font-stretch:normal;font-family:'Reenie Beanie';-inkscape-font-specification:'Reenie Beanie';fill:#ffffff;fill-opacity:1;stroke-width:0.26458332"
         id="path959" />
      <path
         d="m -641.71329,-210.78985 q 0,0.0635 -0.0423,0.127 -0.0423,0.0635 -0.10583,0.11642 -0.0529,0.0529 -0.127,0.0952 -0.0635,0.0317 -0.11642,0.0317 -0.17991,0 -0.46566,-0.0741 -0.27517,-0.0847 -0.4445,-0.254 -0.17992,-0.17992 -0.3175,-0.42334 -0.13759,-0.254 -0.30692,-0.74083 -0.11642,0.46567 -0.27517,0.92075 -0.14816,0.45508 -0.48683,0.83608 -0.0212,0.0212 -0.0635,0.0212 -0.0741,0 -0.15875,-0.0741 -0.0847,-0.0741 -0.0847,-0.14817 0,-0.0741 -0.0212,-0.33867 -0.0106,-0.27516 -0.0317,-0.60325 -0.0212,-0.33866 -0.0423,-0.67733 -0.0106,-0.34925 -0.0106,-0.5715 0,-0.10583 0.0106,-0.27517 0.0106,-0.17991 0.0635,-0.30691 0.0106,-0.0212 0.0741,-0.0847 0.0741,-0.0635 0.15875,-0.0635 0.0741,0 0.0847,0.0952 0.0106,0.0952 0.0106,0.21167 v 1.67216 q 0,0.0529 0.0106,0.14817 0.0212,0.0952 0.0529,0.13758 0.11641,-0.254 0.21166,-0.59266 0.10584,-0.34925 0.20109,-0.65617 0.0952,-0.3175 0.1905,-0.52917 0.0952,-0.22225 0.1905,-0.22225 0.10583,0 0.16933,0.0423 0.0635,0.0423 0.10583,0.16933 0.0529,0.30692 0.0847,0.55033 0.0317,0.23284 0.0741,0.42334 0.0529,0.1905 0.13759,0.35983 0.0952,0.15875 0.254,0.29633 0.14816,0.13759 0.32808,0.20109 0.1905,0.0635 0.32808,0.0635 0.0635,0 0.13759,-0.0212 0.0741,-0.0318 0.10583,-0.0318 0.0423,0 0.0741,0.0741 0.0423,0.0741 0.0423,0.0952 z"
         style="font-style:normal;font-variant:normal;font-weight:normal;font-stretch:normal;font-family:'Reenie Beanie';-inkscape-font-specification:'Reenie Beanie';fill:#ffffff;fill-opacity:1;stroke-width:0.26458332"
         id="path961" />
      <path
         d="m -637.99259,-210.78985 q 0,0.0635 -0.0423,0.127 -0.0423,0.0635 -0.10584,0.11642 -0.0529,0.0529 -0.127,0.0952 -0.0635,0.0317 -0.11641,0.0317 -0.17992,0 -0.46567,-0.0741 -0.27517,-0.0847 -0.4445,-0.254 -0.17992,-0.17992 -0.3175,-0.42334 -0.13758,-0.254 -0.30692,-0.74083 -0.11641,0.46567 -0.27516,0.92075 -0.14817,0.45508 -0.48684,0.83608 -0.0212,0.0212 -0.0635,0.0212 -0.0741,0 -0.15875,-0.0741 -0.0847,-0.0741 -0.0847,-0.14817 0,-0.0741 -0.0212,-0.33867 -0.0106,-0.27516 -0.0317,-0.60325 -0.0212,-0.33866 -0.0423,-0.67733 -0.0106,-0.34925 -0.0106,-0.5715 0,-0.10583 0.0106,-0.27517 0.0106,-0.17991 0.0635,-0.30691 0.0106,-0.0212 0.0741,-0.0847 0.0741,-0.0635 0.15875,-0.0635 0.0741,0 0.0847,0.0952 0.0106,0.0952 0.0106,0.21167 v 1.67216 q 0,0.0529 0.0106,0.14817 0.0212,0.0952 0.0529,0.13758 0.11642,-0.254 0.21167,-0.59266 0.10583,-0.34925 0.20108,-0.65617 0.0953,-0.3175 0.1905,-0.52917 0.0952,-0.22225 0.1905,-0.22225 0.10583,0 0.16933,0.0423 0.0635,0.0423 0.10584,0.16933 0.0529,0.30692 0.0847,0.55033 0.0317,0.23284 0.0741,0.42334 0.0529,0.1905 0.13758,0.35983 0.0953,0.15875 0.254,0.29633 0.14817,0.13759 0.32808,0.20109 0.1905,0.0635 0.32809,0.0635 0.0635,0 0.13758,-0.0212 0.0741,-0.0318 0.10583,-0.0318 0.0423,0 0.0741,0.0741 0.0423,0.0741 0.0423,0.0952 z"
         style="font-style:normal;font-variant:normal;font-weight:normal;font-stretch:normal;font-family:'Reenie Beanie';-inkscape-font-specification:'Reenie Beanie';fill:#ffffff;fill-opacity:1;stroke-width:0.26458332"
         id="path963" />
      <path
         d="m -634.50472,-210.59935 q 0.0106,0.0212 0.0106,0.0635 0,0.0635 -0.0952,0.1905 -0.0317,0.0423 -0.13758,0.13759 -0.10583,0.0953 -0.28575,0.1905 -0.17992,0.0952 -0.4445,0.16933 -0.254,0.0741 -0.60325,0.0741 -0.24342,0 -0.47625,-0.10583 -0.23283,-0.11642 -0.41275,-0.32808 -0.17992,-0.22225 -0.29633,-0.53975 -0.11642,-0.32809 -0.11642,-0.762 0,-0.41275 0.10583,-0.77259 0.10584,-0.35983 0.26459,-0.635 0.16933,-0.27516 0.37041,-0.43391 0.20109,-0.15875 0.39159,-0.15875 0.16933,0 0.33866,0.0741 0.17992,0.0635 0.3175,0.16933 0.14817,0.10584 0.23284,0.24342 0.0847,0.127 0.0847,0.26458 0,0.15875 -0.14816,0.32809 -0.13759,0.16933 -0.33867,0.3175 -0.20108,0.13758 -0.40217,0.23283 -0.20108,0.0847 -0.3175,0.0847 -0.0635,0 -0.11641,-0.0529 -0.0423,-0.0635 -0.0423,-0.14817 0,-0.14816 0.127,-0.23283 0.13759,-0.0847 0.29634,-0.14817 0.15875,-0.0741 0.28575,-0.16933 0.13758,-0.0952 0.13758,-0.26458 0,-0.0212 -0.0529,-0.10584 -0.0529,-0.0847 -0.28575,-0.0847 -0.10583,0 -0.24341,0.127 -0.13759,0.11641 -0.26459,0.32808 -0.127,0.20108 -0.21166,0.48683 -0.0847,0.27517 -0.0847,0.60325 0,0.27517 0.0953,0.49742 0.10583,0.22225 0.26458,0.381 0.15875,0.14817 0.37042,0.23283 0.21167,0.0847 0.43392,0.0847 0.15875,0 0.33866,-0.0635 0.1905,-0.0741 0.34925,-0.14817 0.16934,-0.0847 0.28575,-0.14816 0.127,-0.0741 0.15875,-0.0741 0.0317,0 0.0635,0.0318 0.0423,0.0317 0.0529,0.0635 z"
         style="font-style:normal;font-variant:normal;font-weight:normal;font-stretch:normal;font-family:'Reenie Beanie';-inkscape-font-specification:'Reenie Beanie';fill:#ffffff;fill-opacity:1;stroke-width:0.26458332"
         id="path965" />
      <path
         d="m -631.24919,-212.71601 q 0,0.0741 -0.0635,0.127 -0.0635,0.0423 -0.14817,0.0741 -0.0847,0.0317 -0.16933,0.0529 -0.0847,0.0106 -0.13758,0.0106 -0.15875,0 -0.21167,-0.0212 -0.0529,-0.0212 -0.0847,-0.0212 -0.26458,0 -0.42333,0.0423 -0.15875,0.0423 -0.254,0.13758 -0.0847,0.0952 -0.11642,0.24342 -0.0212,0.13758 -0.0212,0.33867 0,0.33866 0.0212,0.53975 0.0317,0.20108 0.0529,0.32808 0.0317,0.127 0.0529,0.20108 0.0317,0.0635 0.0317,0.127 0,0.0847 -0.0952,0.17992 -0.0847,0.0952 -0.15875,0.0952 -0.127,0 -0.23284,-0.22225 -0.0953,-0.23283 -0.16933,-0.53975 -0.0635,-0.3175 -0.10583,-0.62442 -0.0423,-0.30691 -0.0423,-0.46566 0,-0.17992 0.0318,-0.33867 0.0317,-0.16933 0.0847,-0.28575 0.0529,-0.127 0.11642,-0.20108 0.0635,-0.0741 0.127,-0.0741 0.0529,0 0.0847,0.0423 0.0317,0.0317 0.0529,0.0847 0.0212,0.0423 0.0423,0.0847 0.0317,0.0317 0.0741,0.0317 0.0952,0 0.30691,-0.0952 0.21167,-0.0952 0.51859,-0.0952 0.28575,0 0.42333,0.0212 0.14817,0.0106 0.28575,0.0635 0.0317,0.0106 0.0741,0.0529 0.0529,0.0318 0.0529,0.10584 z"
         style="font-style:normal;font-variant:normal;font-weight:normal;font-stretch:normal;font-family:'Reenie Beanie';-inkscape-font-specification:'Reenie Beanie';fill:#ffffff;fill-opacity:1;stroke-width:0.26458332"
         id="path967" />
    </g>
    <flowRoot
       xml:space="preserve"
       id="flowRoot819"
       style="font-style:normal;font-weight:normal;font-size:40px;line-height:1.25;font-family:sans-serif;letter-spacing:0px;word-spacing:0px;fill:#000000;fill-opacity:1;stroke:none"
       transform="scale(0.26458333)"><flowRegion
         id="flowRegion821"><rect
           id="rect823"
           width="1117.1428"
           height="531.42859"
           x="-2991.4285"
           y="-1046.0518" /></flowRegion><flowPara
         id="flowPara825" /></flowRoot>    <g
       aria-label="."
       style="font-style:normal;font-weight:normal;font-size:16.91077805px;line-height:1.25;font-family:sans-serif;letter-spacing:0px;word-spacing:0px;fill:#e26b56;fill-opacity:1;stroke:#ffffff;stroke-width:0.42343524;stroke-linejoin:round;stroke-miterlimit:4;stroke-dasharray:none;stroke-opacity:1"
       id="text829">
      <path
         d="m -629.3932,-209.82358 q 0,0.10147 -0.10146,0.20293 -0.10146,0.0846 -0.23675,0.16911 -0.11838,0.0676 -0.23675,0.11838 -0.11838,0.0338 -0.13529,0.0338 -0.1522,0 -0.23675,-0.0676 -0.0676,-0.0846 -0.11837,-0.1691 -0.0338,-0.10147 -0.0507,-0.18602 0,-0.0846 0,-0.11838 0,-0.0676 0.0338,-0.16911 0.0338,-0.11837 0.10147,-0.21984 0.0676,-0.10146 0.1522,-0.1691 0.10146,-0.0846 0.21984,-0.0846 0.21984,0 0.40586,0.18602 0.20292,0.18602 0.20292,0.4735 z"
         style="font-style:normal;font-variant:normal;font-weight:normal;font-stretch:normal;font-family:'Reenie Beanie';-inkscape-font-specification:'Reenie Beanie';fill:#e26b56;fill-opacity:1;stroke:#ffffff;stroke-width:0.42343524;stroke-linejoin:round;stroke-miterlimit:4;stroke-dasharray:none;stroke-opacity:1"
         id="path938" />
    </g>
  </g>
</svg>
