<?xml version="1.0" encoding="UTF-8" standalone="no"?>
<!-- Created with Inkscape (http://www.inkscape.org/) -->

<svg
   xmlns:dc="http://purl.org/dc/elements/1.1/"
   xmlns:cc="http://creativecommons.org/ns#"
   xmlns:rdf="http://www.w3.org/1999/02/22-rdf-syntax-ns#"
   xmlns:svg="http://www.w3.org/2000/svg"
   xmlns="http://www.w3.org/2000/svg"
   xmlns:sodipodi="http://sodipodi.sourceforge.net/DTD/sodipodi-0.dtd"
   xmlns:inkscape="http://www.inkscape.org/namespaces/inkscape"
   width="86.319878mm"
   height="97.397804mm"
   viewBox="0 0 86.319878 97.397803"
   version="1.1"
   id="svg8"
   inkscape:version="0.92.3 (2405546, 2018-03-11)"
   sodipodi:docname="osiedlova.svg">
  <defs
     id="defs2" />
  <sodipodi:namedview
     id="base"
     pagecolor="#ffffff"
     bordercolor="#666666"
     borderopacity="1.0"
     inkscape:pageopacity="0.0"
     inkscape:pageshadow="2"
     inkscape:zoom="1.979899"
     inkscape:cx="-23.109771"
     inkscape:cy="332.95407"
     inkscape:document-units="mm"
     inkscape:current-layer="g822"
     showgrid="true"
     inkscape:window-width="3840"
     inkscape:window-height="2066"
     inkscape:window-x="-11"
     inkscape:window-y="-11"
     inkscape:window-maximized="1">
    <inkscape:grid
       type="xygrid"
       id="grid4567"
       originx="-4.5491029e-007"
       originy="6.8791487" />
  </sodipodi:namedview>
  <metadata
     id="metadata5">
    <rdf:RDF>
      <cc:Work
         rdf:about="">
        <dc:format>image/svg+xml</dc:format>
        <dc:type
           rdf:resource="http://purl.org/dc/dcmitype/StillImage" />
        <dc:title />
      </cc:Work>
    </rdf:RDF>
  </metadata>
  <g
     inkscape:label="Layer 1"
     inkscape:groupmode="layer"
     id="layer1"
     transform="translate(-77.855428,-57.150431)">
    <g
       id="g822"
       transform="translate(-40.854914,26.11377)"
       style="fill:none;stroke:#000000;stroke-opacity:1">
      <g
         id="g848"
         transform="translate(-30.468726,-42.495855)">
        <g
           id="g4557"
           transform="translate(-3.2817818,-4.0090394)">
          <g
             id="g4565"
             transform="translate(0,0.25)">
            <ellipse
               style="fill:none;stroke:#ffffff;stroke-width:1.5;stroke-miterlimit:4;stroke-dasharray:none;stroke-opacity:1"
               class="draw bold"
               id="path845"
               cx="195.62079"
               cy="109.50422"
               rx="31.462708"
               ry="31.462664" />
            <ellipse
               style="fill:none;stroke:#ffffff;stroke-width:0.80000001;stroke-miterlimit:4;stroke-dasharray:none;stroke-opacity:1"
               class="draw"
               id="path845-3"
               cx="195.62079"
               cy="109.5042"
               rx="24.475525"
               ry="24.475487" />
            <g
               aria-label="A"
               transform="matrix(1.0103086,0,0,1.0103086,-368.9616,-92.435712)"
               style="font-style:normal;font-variant:normal;font-weight:normal;font-stretch:normal;font-size:40px;line-height:1.25;font-family:Steelfish;-inkscape-font-specification:Steelfish;letter-spacing:0px;word-spacing:0px;writing-mode:lr-tb;direction:ltr;fill:#ffffff;fill-opacity:1;stroke:none;stroke-miterlimit:4;stroke-dasharray:none;stroke-opacity:1"
               id="flowRoot862">
              <path
                 style="fill:#ffffff;fill-opacity:1;stroke:none;stroke-opacity:1"
                 inkscape:connector-curvature="0"
                 class="draw letter"
                 d="m 556.86258,208.11437 h 3.52 l -1.2,-10 -0.56,-6.28 -0.52,6.24 z m -4.72,9.12 4.72,-35.48 h 3.56 l 4.72,35.48 h -3.6 l -0.68,-5.32 h -4.52 l -0.6,5.32 z"
                 id="path870" />
            </g>
          </g>
        </g>
      </g>
      <g
         aria-label="OSIEDLOVA"
         style="font-style:normal;font-variant:normal;font-weight:normal;font-stretch:normal;font-size:10.58333302px;line-height:1.25;font-family:Steelfish;-inkscape-font-specification:Steelfish;letter-spacing:0px;word-spacing:0px;fill:#ffffff;fill-opacity:1;stroke:none;stroke-width:0.26458332"
         id="text834">
        <path
           d="m 123.23154,109.46066 q 0,-1.3208 -1.1176,-1.3208 -1.143,0 -1.143,1.3208 v 15.4178 q 0,1.2954 1.143,1.2954 1.1176,0 1.1176,-1.2954 z m 2.2606,14.0208 q 0,4.953 -3.3782,4.953 -3.4036,0 -3.4036,-4.953 v -12.6238 q 0,-4.953 3.4036,-4.953 3.3782,0 3.3782,4.953 z"
           style="font-style:normal;font-variant:normal;font-weight:normal;font-stretch:normal;font-size:25.39999962px;font-family:Steelfish;-inkscape-font-specification:Steelfish;letter-spacing:2.31245804px;fill:#ffffff;fill-opacity:1;stroke-width:0.26458332"
           id="path855" />
        <path
           d="m 133.79622,109.46066 q 0,-1.3208 -0.9652,-1.3208 -0.9652,0 -0.9652,1.3208 v 3.048 q 0,1.4732 2.0828,4.2418 2.0828,2.7178 2.0828,4.7498 v 1.9812 q 0,4.953 -3.2004,4.953 -3.2258,0 -3.2258,-4.953 v -2.794 h 2.2606 v 4.191 q 0,1.2954 0.9652,1.2954 0.9652,0 0.9652,-1.2954 v -2.5908 q 0,-2.032 -2.1082,-4.7498 -2.0828,-2.6924 -2.0828,-5.2324 v -1.4478 q 0,-4.953 3.2258,-4.953 3.2004,0 3.2004,4.953 v 2.0574 h -2.2352 z"
           style="font-style:normal;font-variant:normal;font-weight:normal;font-stretch:normal;font-size:25.39999962px;font-family:Steelfish;-inkscape-font-specification:Steelfish;letter-spacing:2.31245804px;fill:#ffffff;fill-opacity:1;stroke-width:0.26458332"
           id="path857" />
        <path
           d="m 140.15284,128.43446 v -22.5298 h 2.2606 v 22.5298 z"
           style="font-style:normal;font-variant:normal;font-weight:normal;font-stretch:normal;font-size:25.39999962px;font-family:Steelfish;-inkscape-font-specification:Steelfish;letter-spacing:2.31245804px;fill:#ffffff;fill-opacity:1;stroke-width:0.26458332"
           id="path859" />
        <path
           d="m 148.82386,126.17386 h 3.4798 v 2.2606 h -5.7404 v -22.5298 h 5.7404 v 2.2352 h -3.4798 v 7.6708 h 1.9812 v 2.2606 h -1.9812 z"
           style="font-style:normal;font-variant:normal;font-weight:normal;font-stretch:normal;font-size:25.39999962px;font-family:Steelfish;-inkscape-font-specification:Steelfish;letter-spacing:2.31245804px;fill:#ffffff;fill-opacity:1;stroke-width:0.26458332"
           id="path861" />
        <path
           d="m 160.59028,109.46066 q 0,-1.3208 -1.1176,-1.3208 h -1.143 v 18.034 h 1.143 q 1.1176,0 1.1176,-1.2954 z m 2.2606,14.0208 q 0,4.953 -3.3782,4.953 h -3.4036 v -22.5298 h 3.4036 q 3.3782,0 3.3782,4.953 z"
           style="font-style:normal;font-variant:normal;font-weight:normal;font-stretch:normal;font-size:25.39999962px;font-family:Steelfish;-inkscape-font-specification:Steelfish;letter-spacing:2.31245804px;fill:#ffffff;fill-opacity:1;stroke-width:0.26458332"
           id="path863" />
        <path
           d="m 169.22456,126.17386 h 3.4798 v 2.2606 h -5.7404 v -22.5298 h 2.2606 z"
           style="font-style:normal;font-variant:normal;font-weight:normal;font-stretch:normal;font-size:25.39999962px;font-family:Steelfish;-inkscape-font-specification:Steelfish;letter-spacing:2.31245804px;fill:#ffffff;fill-opacity:1;stroke-width:0.26458332"
           id="path865" />
        <path
           d="m 180.74293,109.46066 q 0,-1.3208 -1.1176,-1.3208 -1.143,0 -1.143,1.3208 v 15.4178 q 0,1.2954 1.143,1.2954 1.1176,0 1.1176,-1.2954 z m 2.2606,14.0208 q 0,4.953 -3.3782,4.953 -3.4036,0 -3.4036,-4.953 v -12.6238 q 0,-4.953 3.4036,-4.953 3.3782,0 3.3782,4.953 z"
           style="font-style:normal;font-variant:normal;font-weight:normal;font-stretch:normal;font-size:25.39999962px;font-family:Steelfish;-inkscape-font-specification:Steelfish;letter-spacing:2.31245804px;fill:#ffffff;fill-opacity:1;stroke-width:0.26458332"
           id="path867" />
        <path
           d="m 194.48261,105.90466 -2.9972,22.5298 h -2.2606 l -2.9972,-22.5298 h 2.286 l 1.4986,12.1412 0.3302,3.9878 0.3302,-3.9624 1.524,-12.1666 z"
           style="font-style:normal;font-variant:normal;font-weight:normal;font-stretch:normal;font-size:25.39999962px;font-family:Steelfish;-inkscape-font-specification:Steelfish;letter-spacing:2.31245804px;fill:#ffffff;fill-opacity:1;stroke-width:0.26458332"
           id="path869" />
        <path
           d="m 199.77242,122.64326 h 2.2352 l -0.762,-6.35 -0.3556,-3.9878 -0.3302,3.9624 z m -2.9972,5.7912 2.9972,-22.5298 h 2.2606 l 2.9972,22.5298 h -2.286 l -0.4318,-3.3782 h -2.8702 l -0.381,3.3782 z"
           style="font-style:normal;font-variant:normal;font-weight:normal;font-stretch:normal;font-size:25.39999962px;font-family:Steelfish;-inkscape-font-specification:Steelfish;letter-spacing:2.31245804px;fill:#ffffff;fill-opacity:1;stroke-width:0.26458332"
           id="path871" />
      </g>
      <flowRoot
         xml:space="preserve"
         id="flowRoot836"
         style="font-style:normal;font-weight:normal;font-size:40px;line-height:1.25;font-family:sans-serif;letter-spacing:0px;word-spacing:0px;fill:#000000;fill-opacity:1;stroke:none"
         transform="matrix(0.26458333,0,0,0.26458333,127.57669,31.036661)"><flowRegion
           id="flowRegion838"><rect
             id="rect840"
             width="403.05087"
             height="137.88582"
             x="-58.588848"
             y="260.29535" /></flowRegion><flowPara
           id="flowPara842" /></flowRoot>    </g>
  </g>
</svg>
